<svg id="svg" version="1.1" xmlns="http://www.w3.org/2000/svg" xmlns:xlink="http://www.w3.org/1999/xlink" width="400" height="283.67254635911354" viewBox="0, 0, 400,283.67254635911354"><g id="svgg"><path id="path0" d="M141.203 14.209 C 115.730 22.002,92.834 29.008,90.321 29.777 C 87.809 30.546,85.753 31.226,85.753 31.288 C 85.753 31.421,93.556 33.762,93.768 33.692 C 93.972 33.624,96.967 34.546,97.512 34.844 C 97.761 34.980,118.129 41.164,142.775 48.587 L 187.584 62.082 238.206 46.951 C 266.049 38.629,288.979 31.776,289.163 31.722 C 289.348 31.668,289.429 31.559,289.344 31.479 C 289.167 31.312,187.959 -0.010,187.693 0.020 C 187.596 0.031,166.676 6.416,141.203 14.209 M219.280 57.439 L 188.086 66.733 156.992 57.518 C 139.890 52.450,125.861 48.304,125.816 48.304 C 125.772 48.304,125.735 56.769,125.735 67.116 L 125.735 85.927 126.142 86.005 C 126.366 86.048,128.528 86.215,130.947 86.377 C 144.298 87.271,153.149 89.259,162.189 93.393 C 170.397 97.147,175.740 101.390,184.577 111.171 C 188.678 115.712,188.268 115.571,190.400 113.161 C 201.043 101.132,207.610 96.072,217.730 92.103 C 226.665 88.599,233.358 87.352,249.435 86.197 L 251.108 86.076 251.108 74.728 C 251.108 59.313,250.924 48.120,250.672 48.134 C 250.563 48.140,236.437 52.327,219.280 57.439 M115.061 145.726 C 115.399 146.074,115.715 146.359,115.765 146.359 C 115.815 146.359,115.580 146.074,115.242 145.726 C 114.904 145.378,114.588 145.093,114.538 145.093 C 114.488 145.093,114.724 145.378,115.061 145.726 " stroke="none" fill="#1c243c" fill-rule="evenodd"></path><path id="path1" d="M93.713 41.319 L 93.713 48.807 93.303 48.911 C 89.732 49.807,89.376 54.672,92.764 56.278 C 93.236 56.501,93.645 56.700,93.672 56.720 C 93.699 56.739,92.621 61.278,91.275 66.807 C 89.930 72.335,88.829 76.936,88.829 77.029 C 88.829 77.253,91.340 78.395,92.718 78.798 C 96.075 79.778,101.237 78.387,101.727 76.370 C 102.262 74.171,100.529 65.190,98.200 58.083 L 97.640 56.374 98.074 56.093 C 100.539 54.495,100.696 50.982,98.365 49.565 L 97.784 49.212 97.693 42.029 L 97.603 34.845 95.975 34.341 C 95.079 34.063,94.204 33.835,94.030 33.834 C 93.733 33.831,93.713 34.307,93.713 41.319 " stroke="none" fill="#f3d363" fill-rule="evenodd"></path><path id="path2" d="M13.288 239.070 C 4.886 240.597,0.371 246.322,1.896 253.517 C 3.088 259.145,6.952 261.826,18.001 264.693 C 22.592 265.885,23.737 266.350,25.009 267.539 C 27.893 270.235,25.405 274.907,20.561 275.892 C 14.564 277.111,10.021 274.391,8.855 268.883 C 8.614 267.744,9.039 267.788,3.799 268.353 L 0.090 268.752 0.144 269.654 C 0.725 279.479,10.055 285.094,22.684 283.219 C 31.125 281.966,35.834 276.314,34.946 268.502 C 34.129 261.324,30.980 258.809,18.848 255.644 C 12.630 254.022,10.515 252.860,10.195 250.888 C 9.724 247.987,12.282 246.314,17.187 246.314 C 21.867 246.314,23.885 247.710,24.771 251.560 L 24.980 252.465 29.428 252.303 L 33.876 252.140 33.757 250.831 C 32.971 242.157,24.161 237.095,13.288 239.070 M57.139 239.085 C 46.178 240.793,39.657 250.617,40.713 263.833 C 41.645 275.499,48.678 282.781,59.672 283.463 C 73.974 284.349,82.580 276.000,82.580 261.239 C 82.580 245.663,72.312 236.722,57.139 239.085 M89.371 261.333 L 89.371 282.955 93.849 282.907 L 98.327 282.858 98.374 274.763 L 98.421 266.667 100.454 266.665 C 111.460 266.654,114.366 266.133,117.879 263.544 C 124.482 258.677,124.059 246.390,117.130 241.791 C 114.178 239.832,113.159 239.712,99.457 239.711 L 89.371 239.711 89.371 261.333 M125.302 239.937 C 125.443 240.179,127.694 243.760,131.927 250.475 C 138.931 261.584,140.167 263.548,140.535 264.155 C 140.929 264.806,140.932 264.863,140.932 273.879 L 140.932 282.949 145.364 282.949 L 149.796 282.949 149.796 273.831 L 149.796 264.713 152.483 260.489 C 156.272 254.529,165.034 240.803,165.429 240.208 L 165.758 239.711 160.536 239.716 L 155.314 239.721 153.942 242.113 C 153.188 243.428,150.990 247.205,149.059 250.505 L 145.547 256.506 145.070 255.752 C 144.807 255.337,142.660 251.741,140.299 247.761 C 137.937 243.781,135.890 240.341,135.750 240.118 C 135.445 239.629,125.019 239.449,125.302 239.937 M173.721 247.265 C 172.104 251.418,169.634 257.748,168.233 261.330 C 162.193 276.775,159.928 282.627,159.928 282.786 C 159.928 282.888,161.775 282.936,164.575 282.907 L 169.223 282.858 169.613 281.863 C 169.827 281.316,170.639 279.138,171.417 277.024 L 172.832 273.180 181.470 273.180 L 190.109 273.180 190.572 274.401 C 190.827 275.072,191.638 277.250,192.376 279.240 L 193.716 282.858 198.463 282.907 L 203.209 282.955 203.128 282.545 C 203.084 282.319,199.233 272.589,194.570 260.923 L 186.094 239.711 181.378 239.711 L 176.662 239.712 173.721 247.265 M207.733 261.284 L 207.779 282.858 212.257 282.907 L 216.735 282.955 216.735 273.906 L 216.735 264.858 218.806 264.858 C 224.139 264.858,224.610 265.281,232.410 277.099 L 236.271 282.949 241.519 282.949 C 244.405 282.949,246.766 282.879,246.766 282.793 C 246.766 282.585,241.970 274.794,240.570 272.727 C 237.602 268.346,235.567 266.035,233.491 264.688 L 232.253 263.885 233.856 263.468 C 239.862 261.908,242.857 258.307,243.101 252.352 C 243.265 248.347,242.272 245.533,239.820 243.054 C 236.795 239.996,235.038 239.714,218.950 239.712 L 207.687 239.711 207.733 261.284 M65.021 246.943 C 71.954 248.716,75.319 257.662,72.709 267.380 C 69.422 279.617,52.779 278.553,50.230 265.943 C 47.676 253.315,54.693 244.301,65.021 246.943 M109.401 247.515 C 112.942 248.822,114.323 252.436,112.615 255.925 C 111.410 258.389,109.635 258.978,102.822 259.176 L 98.417 259.304 98.417 253.216 L 98.417 247.128 103.385 247.128 C 108.012 247.128,108.426 247.155,109.401 247.515 M231.402 247.714 C 235.104 249.534,235.055 255.186,231.320 257.110 C 230.538 257.512,226.017 257.783,219.855 257.796 L 216.735 257.802 216.735 252.453 L 216.735 247.105 223.564 247.161 L 230.393 247.218 231.402 247.714 M184.228 257.773 C 185.788 261.936,187.065 265.396,187.065 265.462 C 187.065 265.527,184.492 265.581,181.347 265.581 C 176.851 265.581,175.645 265.533,175.706 265.355 C 176.806 262.170,181.214 250.205,181.288 250.204 C 181.345 250.204,182.668 253.610,184.228 257.773 " stroke="none" fill="#343434" fill-rule="evenodd"></path><path id="path3" d="M110.357 93.888 C 110.357 93.985,110.235 94.017,110.086 93.960 C 109.937 93.902,109.815 93.946,109.815 94.056 C 109.815 94.166,109.754 94.239,109.679 94.218 C 109.142 94.066,107.277 96.522,107.569 96.996 C 107.644 97.116,107.621 97.158,107.517 97.094 C 107.314 96.969,106.353 99.260,106.312 99.964 C 106.298 100.208,106.231 100.407,106.163 100.407 C 105.966 100.407,105.426 103.080,105.575 103.321 C 105.654 103.449,105.633 103.491,105.524 103.424 C 105.301 103.286,104.682 106.889,104.668 108.412 C 104.663 108.984,104.595 109.452,104.518 109.453 C 104.391 109.453,104.345 110.466,104.346 113.252 C 104.347 116.449,104.417 117.775,104.585 117.775 C 104.687 117.775,104.718 117.860,104.654 117.964 C 104.483 118.240,104.763 121.225,104.949 121.110 C 105.036 121.056,105.057 121.143,104.995 121.302 C 104.825 121.747,105.485 125.568,105.708 125.430 C 105.825 125.358,105.850 125.432,105.775 125.628 C 105.649 125.958,105.959 127.495,106.221 127.832 C 106.305 127.941,106.320 128.083,106.255 128.149 C 106.190 128.214,106.236 128.268,106.358 128.268 C 106.480 128.268,106.535 128.339,106.482 128.426 C 106.351 128.637,106.988 130.491,107.139 130.340 C 107.204 130.275,107.209 130.406,107.151 130.630 C 107.070 130.936,107.103 131.002,107.281 130.891 C 107.429 130.800,107.475 130.816,107.402 130.933 C 107.229 131.213,107.645 132.268,107.873 132.128 C 107.995 132.052,108.024 132.119,107.951 132.309 C 107.888 132.474,107.920 132.610,108.022 132.610 C 108.124 132.610,108.161 132.685,108.104 132.777 C 107.951 133.025,108.390 133.883,108.603 133.752 C 108.704 133.689,108.730 133.729,108.660 133.841 C 108.533 134.048,109.360 135.867,109.673 136.067 C 109.768 136.128,109.818 136.216,109.785 136.262 C 109.661 136.434,110.434 137.649,110.601 137.546 C 110.697 137.487,110.717 137.532,110.646 137.647 C 110.487 137.904,110.966 138.629,111.171 138.443 C 111.253 138.369,111.263 138.407,111.194 138.527 C 111.043 138.791,112.057 140.252,112.262 140.066 C 112.341 139.995,112.354 140.027,112.291 140.138 C 112.151 140.383,113.370 142.127,113.633 142.058 C 113.737 142.031,113.770 142.092,113.707 142.194 C 113.644 142.296,113.679 142.379,113.784 142.379 C 113.889 142.379,113.976 142.465,113.976 142.571 C 113.976 142.896,115.294 144.359,115.482 144.242 C 115.580 144.182,115.610 144.213,115.549 144.312 C 115.487 144.411,115.959 145.055,116.597 145.742 C 117.395 146.601,117.760 146.890,117.766 146.665 C 117.771 146.485,117.699 146.385,117.606 146.442 C 117.514 146.499,117.387 146.463,117.324 146.362 C 117.262 146.261,117.297 146.178,117.402 146.178 C 117.667 146.178,117.642 145.891,117.353 145.602 C 117.221 145.469,117.146 145.260,117.187 145.136 C 117.228 145.013,117.177 144.912,117.072 144.912 C 116.967 144.912,116.924 144.800,116.977 144.664 C 117.029 144.527,116.959 144.303,116.821 144.165 C 116.683 144.027,116.603 143.813,116.645 143.689 C 116.686 143.566,116.634 143.464,116.529 143.464 C 116.424 143.464,116.382 143.353,116.434 143.216 C 116.486 143.080,116.416 142.855,116.278 142.717 C 116.140 142.579,116.061 142.365,116.102 142.242 C 116.143 142.118,116.091 142.017,115.986 142.017 C 115.882 142.017,115.839 141.906,115.891 141.769 C 115.944 141.633,115.873 141.408,115.735 141.270 C 115.597 141.132,115.518 140.918,115.559 140.794 C 115.600 140.671,115.541 140.570,115.427 140.570 C 115.314 140.570,115.267 140.495,115.324 140.403 C 115.464 140.176,115.047 139.291,114.856 139.409 C 114.772 139.461,114.748 139.387,114.802 139.246 C 114.856 139.104,114.778 138.865,114.628 138.715 C 114.478 138.565,114.405 138.392,114.467 138.330 C 114.528 138.268,114.479 138.218,114.357 138.218 C 114.235 138.218,114.182 138.143,114.239 138.051 C 114.370 137.838,113.726 136.176,113.572 136.330 C 113.509 136.393,113.502 136.274,113.557 136.065 C 113.611 135.856,113.573 135.685,113.471 135.685 C 113.369 135.685,113.332 135.510,113.388 135.295 C 113.464 135.004,113.429 134.942,113.252 135.052 C 113.112 135.138,113.059 135.127,113.123 135.024 C 113.272 134.783,112.445 130.764,112.280 130.928 C 112.207 131.001,112.199 130.927,112.262 130.763 C 112.325 130.599,112.284 129.543,112.171 128.417 C 111.966 126.369,111.894 119.155,112.067 118.075 C 112.166 117.458,112.389 114.494,112.419 113.388 C 112.429 113.014,112.508 112.709,112.594 112.709 C 112.680 112.709,112.714 112.465,112.671 112.166 C 112.627 111.868,112.642 111.624,112.705 111.624 C 112.885 111.624,113.290 108.937,113.145 108.703 C 113.059 108.564,113.095 108.541,113.248 108.636 C 113.425 108.746,113.462 108.645,113.399 108.222 C 113.351 107.894,113.389 107.707,113.490 107.769 C 113.591 107.832,113.628 107.645,113.580 107.317 C 113.535 107.010,113.549 106.790,113.612 106.828 C 113.767 106.924,114.393 103.177,114.258 102.958 C 114.199 102.862,114.233 102.733,114.334 102.670 C 114.442 102.604,114.518 101.690,114.518 100.476 C 114.518 99.332,114.448 98.439,114.363 98.492 C 114.277 98.545,114.231 98.370,114.260 98.104 C 114.330 97.471,114.150 96.590,113.974 96.699 C 113.898 96.746,113.839 96.684,113.844 96.561 C 113.866 95.942,113.780 95.691,113.586 95.811 C 113.458 95.890,113.426 95.861,113.504 95.735 C 113.668 95.469,113.288 94.755,113.057 94.898 C 112.960 94.958,112.904 94.899,112.931 94.767 C 112.958 94.635,112.873 94.550,112.741 94.577 C 112.609 94.604,112.554 94.542,112.618 94.438 C 112.684 94.332,112.452 94.130,112.095 93.981 C 111.370 93.678,110.357 93.624,110.357 93.888 M266.337 93.988 C 266.007 94.132,265.789 94.334,265.853 94.438 C 265.917 94.542,265.862 94.604,265.730 94.577 C 264.135 94.246,263.383 104.854,264.873 106.665 C 264.962 106.774,264.985 106.913,264.924 106.974 C 264.863 107.035,264.877 107.231,264.954 107.410 C 265.032 107.588,265.079 107.807,265.058 107.897 C 265.037 107.986,265.077 108.190,265.147 108.349 C 265.216 108.508,265.254 108.831,265.231 109.066 C 265.207 109.301,265.256 109.451,265.339 109.400 C 265.423 109.348,265.502 109.563,265.515 109.877 C 265.562 110.954,265.793 112.257,265.948 112.314 C 266.034 112.345,266.064 112.475,266.015 112.602 C 265.966 112.730,266.011 113.477,266.116 114.264 C 266.799 119.403,266.588 128.779,265.697 132.881 C 265.460 133.975,265.309 134.986,265.363 135.127 C 265.426 135.290,265.385 135.335,265.250 135.252 C 265.068 135.140,264.928 135.712,265.084 135.929 C 265.109 135.963,265.034 136.106,264.919 136.245 C 264.584 136.650,263.955 138.437,264.078 138.636 C 264.140 138.735,264.104 138.764,264.000 138.699 C 263.772 138.558,263.540 139.075,263.709 139.348 C 263.785 139.470,263.741 139.486,263.588 139.392 C 263.416 139.286,263.380 139.326,263.460 139.533 C 263.521 139.693,263.490 139.850,263.390 139.883 C 263.291 139.916,263.190 140.064,263.166 140.211 C 263.141 140.359,263.024 140.656,262.905 140.873 C 262.786 141.089,262.664 141.415,262.633 141.596 C 262.603 141.778,262.481 142.104,262.362 142.320 C 262.243 142.536,262.123 142.862,262.094 143.044 C 262.066 143.225,261.979 143.476,261.902 143.600 C 261.824 143.725,261.827 143.828,261.907 143.829 C 261.988 143.831,261.954 143.895,261.832 143.973 C 261.710 144.050,261.574 144.313,261.529 144.558 C 261.484 144.802,261.431 145.043,261.412 145.093 C 261.393 145.142,261.387 145.244,261.399 145.319 C 261.411 145.393,261.348 145.455,261.259 145.455 C 261.170 145.455,261.048 145.651,260.988 145.890 C 260.928 146.130,260.825 146.476,260.759 146.659 C 260.661 146.931,260.725 146.913,261.114 146.559 C 261.376 146.321,261.550 146.062,261.502 145.983 C 261.454 145.905,261.510 145.782,261.626 145.710 C 261.767 145.624,261.794 145.665,261.706 145.834 C 261.634 145.973,261.947 145.693,262.402 145.211 C 262.857 144.729,263.182 144.259,263.125 144.166 C 263.068 144.074,263.129 144.021,263.261 144.048 C 263.393 144.075,263.478 143.990,263.451 143.858 C 263.423 143.724,263.489 143.673,263.599 143.741 C 263.711 143.810,263.840 143.698,263.896 143.483 C 263.950 143.274,264.072 143.103,264.166 143.103 C 264.259 143.103,264.278 143.009,264.207 142.894 C 264.129 142.768,264.157 142.734,264.278 142.808 C 264.507 142.950,264.911 142.312,264.715 142.116 C 264.644 142.045,264.699 142.014,264.836 142.047 C 265.142 142.121,267.775 138.411,267.658 138.073 C 267.612 137.943,267.644 137.880,267.728 137.932 C 267.932 138.058,268.869 136.323,268.699 136.135 C 268.626 136.055,268.659 136.042,268.771 136.106 C 268.948 136.207,269.387 135.480,269.431 135.015 C 269.439 134.936,269.557 134.759,269.694 134.622 C 269.832 134.484,269.894 134.243,269.833 134.084 C 269.773 133.926,269.783 133.857,269.856 133.930 C 270.034 134.107,270.497 132.987,270.347 132.744 C 270.282 132.639,270.312 132.605,270.414 132.668 C 270.655 132.817,271.818 129.819,271.634 129.521 C 271.545 129.377,271.570 129.343,271.704 129.426 C 271.826 129.502,271.923 129.438,271.936 129.273 C 271.959 128.982,272.012 128.729,272.099 128.494 C 272.127 128.419,272.165 128.277,272.184 128.177 C 272.203 128.078,272.307 127.783,272.414 127.522 C 272.738 126.738,273.404 123.395,273.294 123.108 C 273.237 122.961,273.264 122.840,273.354 122.840 C 273.517 122.840,273.551 122.590,273.604 120.986 C 273.619 120.513,273.697 120.127,273.776 120.127 C 273.855 120.127,273.925 119.781,273.932 119.358 C 273.971 116.828,274.039 115.588,274.145 115.483 C 274.304 115.324,274.301 111.720,274.142 111.561 C 274.074 111.493,274.038 111.011,274.062 110.490 C 274.105 109.572,273.467 104.574,273.237 104.025 C 273.175 103.876,273.143 103.603,273.166 103.418 C 273.195 103.191,273.136 103.126,272.985 103.219 C 272.837 103.311,272.808 103.283,272.898 103.136 C 273.059 102.876,272.465 100.199,272.273 100.318 C 272.201 100.362,272.148 100.258,272.155 100.086 C 272.182 99.470,271.884 98.594,271.690 98.715 C 271.582 98.781,271.547 98.751,271.612 98.645 C 271.784 98.367,271.150 96.781,270.789 96.587 C 270.619 96.496,270.515 96.321,270.558 96.198 C 271.002 94.932,267.902 93.309,266.337 93.988 M94.481 97.985 C 94.356 98.040,94.308 98.173,94.373 98.279 C 94.442 98.390,94.408 98.420,94.295 98.351 C 93.826 98.061,92.559 100.256,92.372 101.682 C 92.340 101.926,92.258 102.256,92.190 102.415 C 92.123 102.575,92.084 102.778,92.105 102.868 C 92.125 102.957,92.080 103.174,92.003 103.350 C 91.926 103.526,91.901 103.869,91.948 104.113 C 91.995 104.357,91.973 104.520,91.899 104.475 C 91.738 104.375,91.496 107.204,91.617 107.779 C 91.664 108.003,91.630 108.186,91.542 108.186 C 91.355 108.186,91.313 118.637,91.498 118.933 C 91.567 119.042,91.598 119.631,91.567 120.242 C 91.535 120.879,91.592 121.402,91.700 121.469 C 91.804 121.533,91.844 121.702,91.789 121.843 C 91.629 122.262,92.585 129.013,92.930 129.896 C 92.988 130.045,93.052 130.330,93.071 130.529 C 93.155 131.411,93.395 132.429,93.517 132.429 C 93.591 132.429,93.651 132.571,93.650 132.745 C 93.646 133.604,93.728 134.069,93.868 133.983 C 93.953 133.930,93.982 134.100,93.932 134.361 C 93.882 134.621,93.915 134.790,94.004 134.735 C 94.093 134.681,94.181 134.932,94.201 135.293 C 94.220 135.654,94.313 135.976,94.408 136.007 C 94.502 136.039,94.535 136.236,94.480 136.446 C 94.425 136.656,94.454 136.782,94.544 136.727 C 94.634 136.672,94.724 136.922,94.744 137.283 C 94.763 137.644,94.860 137.967,94.960 138.000 C 95.059 138.033,95.099 138.169,95.048 138.302 C 94.997 138.435,95.038 138.595,95.140 138.658 C 95.242 138.721,95.280 138.892,95.224 139.038 C 95.168 139.184,95.217 139.303,95.333 139.303 C 95.449 139.303,95.502 139.371,95.450 139.455 C 95.321 139.665,95.728 140.932,95.925 140.932 C 96.014 140.932,96.036 141.014,95.974 141.114 C 95.810 141.378,97.542 146.181,97.753 146.051 C 97.851 145.991,97.873 146.034,97.803 146.148 C 97.626 146.433,99.139 150.180,99.373 150.036 C 99.475 149.973,99.506 150.006,99.442 150.110 C 99.285 150.364,99.677 151.450,99.880 151.325 C 99.969 151.270,99.993 151.351,99.933 151.506 C 99.874 151.660,99.902 151.787,99.996 151.787 C 100.089 151.787,100.166 151.906,100.166 152.052 C 100.166 152.529,100.815 153.770,101.003 153.653 C 101.104 153.591,101.132 153.629,101.064 153.737 C 100.902 154.001,102.054 156.319,102.278 156.181 C 102.374 156.121,102.397 156.164,102.328 156.276 C 102.169 156.533,103.190 158.346,103.391 158.163 C 103.473 158.089,103.482 158.130,103.411 158.254 C 103.254 158.527,103.725 159.258,103.935 159.067 C 104.017 158.993,104.025 159.034,103.953 159.158 C 103.803 159.420,104.265 160.170,104.458 159.977 C 104.529 159.906,104.539 159.973,104.481 160.126 C 104.418 160.289,104.577 160.622,104.866 160.934 C 105.137 161.226,105.338 161.465,105.313 161.465 C 105.289 161.465,105.323 161.607,105.389 161.781 C 105.456 161.955,105.604 162.043,105.718 161.978 C 105.832 161.913,105.867 161.924,105.796 162.003 C 105.629 162.188,105.985 162.862,106.185 162.739 C 106.268 162.687,106.325 162.787,106.312 162.960 C 106.298 163.133,106.375 163.259,106.483 163.239 C 106.591 163.220,106.679 163.304,106.679 163.426 C 106.679 163.784,107.306 164.638,107.487 164.526 C 107.578 164.470,107.630 164.503,107.603 164.600 C 107.519 164.899,108.931 166.629,109.155 166.501 C 109.269 166.436,109.304 166.447,109.232 166.527 C 109.045 166.734,109.803 167.735,110.037 167.591 C 110.145 167.524,110.188 167.544,110.134 167.634 C 110.080 167.724,110.488 168.286,111.041 168.883 C 111.594 169.480,111.931 169.806,111.790 169.607 C 111.554 169.274,111.558 169.264,111.848 169.491 C 112.021 169.627,112.125 169.799,112.078 169.874 C 111.954 170.075,112.623 170.625,112.798 170.466 C 112.881 170.391,112.896 170.421,112.833 170.532 C 112.726 170.719,113.322 171.416,113.588 171.416 C 113.652 171.416,113.685 171.472,113.662 171.541 C 113.639 171.611,113.883 171.851,114.205 172.075 C 114.527 172.299,114.855 172.588,114.934 172.717 C 115.245 173.224,118.539 175.844,118.722 175.731 C 118.834 175.662,118.864 175.696,118.793 175.811 C 118.649 176.044,119.287 176.440,119.499 176.249 C 119.577 176.178,119.586 176.217,119.517 176.336 C 119.375 176.585,120.002 176.990,120.222 176.791 C 120.301 176.720,120.313 176.755,120.248 176.868 C 120.117 177.096,120.996 177.763,121.334 177.692 C 121.451 177.668,121.606 177.744,121.679 177.861 C 121.768 178.006,121.729 178.028,121.557 177.930 C 121.386 177.832,121.362 177.845,121.483 177.969 C 121.889 178.381,125.590 180.753,125.473 180.526 C 125.403 180.391,125.454 180.411,125.587 180.571 C 126.006 181.077,127.905 182.202,128.119 182.070 C 128.231 182.000,128.275 182.023,128.214 182.120 C 128.099 182.306,130.311 183.688,130.724 183.688 C 130.857 183.688,130.927 183.750,130.880 183.825 C 130.785 183.979,131.514 184.270,131.796 184.191 C 131.895 184.163,131.914 184.202,131.839 184.278 C 131.714 184.403,133.857 185.770,134.307 185.854 C 134.411 185.873,134.658 186.033,134.858 186.210 C 135.057 186.386,135.329 186.489,135.462 186.438 C 135.595 186.387,135.664 186.409,135.616 186.488 C 135.498 186.679,138.383 188.256,138.716 188.183 C 138.860 188.152,138.934 188.197,138.881 188.283 C 138.744 188.505,142.876 190.733,143.131 190.575 C 143.260 190.495,143.290 190.526,143.210 190.655 C 143.096 190.840,143.208 190.898,143.580 190.848 C 143.643 190.840,143.745 190.910,143.806 191.005 C 144.006 191.315,145.462 191.966,145.670 191.838 C 145.782 191.768,145.822 191.793,145.760 191.895 C 145.620 192.122,146.495 192.541,146.762 192.376 C 146.872 192.308,146.906 192.339,146.840 192.445 C 146.699 192.673,147.216 192.905,147.489 192.736 C 147.611 192.661,147.627 192.705,147.533 192.857 C 147.425 193.032,147.468 193.064,147.696 192.977 C 147.866 192.912,147.962 192.930,147.907 193.018 C 147.780 193.224,148.321 193.435,148.574 193.279 C 148.680 193.213,148.715 193.243,148.652 193.346 C 148.544 193.520,150.086 194.244,150.384 194.159 C 150.459 194.138,150.520 194.207,150.520 194.312 C 150.520 194.417,150.602 194.453,150.701 194.392 C 150.801 194.330,150.882 194.371,150.882 194.482 C 150.882 194.593,150.963 194.634,151.063 194.573 C 151.162 194.511,151.244 194.552,151.244 194.663 C 151.244 194.774,151.318 194.819,151.409 194.763 C 151.500 194.707,151.602 194.730,151.635 194.816 C 151.743 195.090,155.159 196.838,155.314 196.698 C 155.396 196.624,155.410 196.656,155.344 196.770 C 155.213 197.000,155.704 197.256,155.965 197.095 C 156.056 197.038,156.181 197.122,156.242 197.282 C 156.363 197.596,157.279 198.138,157.462 198.003 C 157.525 197.957,157.536 197.973,157.488 198.038 C 157.359 198.210,160.648 200.295,160.850 200.170 C 160.945 200.111,161.000 200.171,160.972 200.303 C 160.944 200.440,161.052 200.521,161.226 200.493 C 161.392 200.465,161.588 200.539,161.661 200.656 C 161.749 200.799,161.708 200.826,161.539 200.736 C 161.399 200.662,161.488 200.770,161.737 200.975 C 162.191 201.351,162.397 201.431,162.732 201.363 C 162.831 201.343,162.853 201.386,162.780 201.459 C 162.601 201.638,164.817 203.184,165.048 203.042 C 165.148 202.980,165.175 203.019,165.107 203.129 C 164.965 203.358,165.603 203.762,165.799 203.567 C 165.870 203.496,165.901 203.559,165.868 203.709 C 165.828 203.888,165.921 203.961,166.142 203.923 C 166.326 203.891,166.431 203.939,166.375 204.030 C 166.319 204.120,166.526 204.381,166.835 204.609 C 167.144 204.837,167.330 204.911,167.248 204.773 C 167.166 204.636,167.356 204.794,167.669 205.125 C 168.007 205.481,168.327 205.672,168.454 205.594 C 168.577 205.518,168.620 205.539,168.555 205.644 C 168.419 205.865,169.956 207.008,170.140 206.823 C 170.212 206.752,170.243 206.787,170.210 206.900 C 170.137 207.148,171.695 208.429,171.909 208.297 C 171.991 208.246,172.035 208.312,172.008 208.444 C 171.981 208.576,172.060 208.664,172.185 208.639 C 172.309 208.614,172.411 208.680,172.411 208.785 C 172.411 208.890,172.505 208.918,172.620 208.847 C 172.743 208.771,172.780 208.797,172.709 208.911 C 172.564 209.146,173.928 210.266,174.133 210.081 C 174.213 210.009,174.225 210.043,174.160 210.156 C 174.024 210.395,175.196 211.356,175.388 211.164 C 175.459 211.093,175.489 211.158,175.456 211.307 C 175.423 211.456,175.498 211.558,175.622 211.533 C 175.746 211.508,175.829 211.549,175.807 211.624 C 175.753 211.797,179.316 215.353,179.557 215.367 C 179.656 215.373,179.741 215.500,179.746 215.649 C 179.750 215.798,179.852 215.900,179.972 215.875 C 180.092 215.850,180.170 215.901,180.145 215.988 C 180.120 216.075,180.547 216.700,181.095 217.376 C 182.502 219.115,182.587 219.213,182.437 218.923 C 182.347 218.750,182.376 218.712,182.526 218.805 C 182.647 218.880,182.704 218.985,182.651 219.038 C 182.509 219.180,182.898 219.835,183.064 219.733 C 183.141 219.684,183.205 219.748,183.205 219.873 C 183.205 220.260,185.656 223.606,185.851 223.486 C 185.952 223.423,185.980 223.461,185.913 223.570 C 185.745 223.841,187.299 225.696,187.668 225.665 C 187.832 225.651,187.921 225.712,187.866 225.801 C 187.671 226.116,188.677 225.955,188.909 225.633 C 189.187 225.247,189.729 224.878,189.519 225.217 C 189.333 225.520,189.744 225.961,190.213 225.961 C 190.723 225.961,191.447 225.448,191.291 225.197 C 191.222 225.085,191.253 225.052,191.364 225.121 C 191.594 225.263,192.352 224.365,192.205 224.126 C 192.149 224.036,192.185 223.984,192.285 224.012 C 192.543 224.082,193.408 222.872,193.271 222.632 C 193.209 222.523,193.225 222.494,193.308 222.569 C 193.493 222.738,194.851 220.872,194.709 220.643 C 194.653 220.552,194.686 220.527,194.783 220.586 C 194.979 220.708,195.683 219.641,195.594 219.358 C 195.563 219.258,195.593 219.233,195.662 219.301 C 195.831 219.471,197.741 217.065,197.608 216.850 C 197.549 216.756,197.587 216.731,197.691 216.795 C 197.880 216.912,198.579 216.042,198.502 215.785 C 198.480 215.710,198.564 215.669,198.688 215.694 C 198.813 215.719,198.892 215.632,198.865 215.500 C 198.837 215.368,198.885 215.304,198.971 215.356 C 199.125 215.452,200.689 213.976,200.652 213.768 C 200.642 213.708,200.680 213.665,200.737 213.672 C 200.943 213.699,204.156 210.488,204.099 210.312 C 204.067 210.213,204.098 210.189,204.168 210.259 C 204.354 210.445,205.536 209.493,205.398 209.269 C 205.334 209.165,205.359 209.129,205.455 209.188 C 205.551 209.247,205.869 209.091,206.162 208.841 C 206.454 208.591,206.579 208.445,206.440 208.518 C 206.271 208.605,206.230 208.578,206.317 208.437 C 206.389 208.321,206.524 208.273,206.618 208.331 C 206.712 208.389,207.035 208.190,207.336 207.889 C 207.637 207.587,207.942 207.325,208.012 207.306 C 208.393 207.202,209.106 206.518,209.010 206.348 C 208.948 206.240,208.962 206.209,209.040 206.280 C 209.252 206.472,209.891 206.076,209.746 205.843 C 209.678 205.733,209.705 205.693,209.805 205.755 C 210.046 205.905,211.233 205.010,211.156 204.736 C 211.123 204.619,211.154 204.581,211.225 204.652 C 211.421 204.848,212.059 204.444,211.917 204.214 C 211.850 204.105,211.874 204.064,211.971 204.124 C 212.167 204.245,213.951 203.037,213.895 202.820 C 213.876 202.745,213.960 202.684,214.082 202.684 C 214.463 202.684,215.290 202.050,215.167 201.852 C 215.101 201.744,215.137 201.716,215.252 201.787 C 215.500 201.941,216.954 200.919,216.774 200.719 C 216.702 200.640,216.731 200.625,216.837 200.685 C 217.091 200.829,218.586 199.836,218.409 199.640 C 218.334 199.557,218.359 199.539,218.464 199.599 C 218.673 199.717,219.691 199.128,219.540 198.976 C 219.490 198.926,219.555 198.884,219.686 198.884 C 220.088 198.884,221.965 197.679,221.851 197.494 C 221.792 197.399,221.829 197.373,221.933 197.438 C 222.150 197.572,223.790 196.706,223.790 196.457 C 223.790 196.366,223.861 196.312,223.948 196.336 C 224.240 196.420,228.836 194.054,228.727 193.877 C 228.667 193.781,228.706 193.756,228.811 193.822 C 229.065 193.978,229.606 193.766,229.478 193.561 C 229.424 193.473,229.519 193.454,229.690 193.520 C 229.917 193.607,229.961 193.575,229.852 193.399 C 229.755 193.242,229.774 193.203,229.908 193.286 C 230.127 193.421,231.212 192.934,231.431 192.603 C 231.504 192.492,231.565 192.464,231.567 192.539 C 231.570 192.706,234.870 191.072,235.027 190.826 C 235.088 190.730,235.193 190.667,235.261 190.686 C 235.541 190.764,236.441 190.265,236.333 190.091 C 236.269 189.987,236.304 189.957,236.413 190.024 C 236.680 190.189,237.556 189.770,237.415 189.543 C 237.353 189.443,237.380 189.409,237.475 189.467 C 237.705 189.609,240.482 188.077,240.309 187.904 C 240.234 187.830,240.296 187.816,240.446 187.874 C 240.596 187.931,240.899 187.810,241.119 187.605 C 241.339 187.399,241.520 187.281,241.520 187.341 C 241.520 187.401,241.842 187.268,242.236 187.047 C 242.630 186.826,242.902 186.564,242.841 186.465 C 242.779 186.364,242.822 186.342,242.939 186.414 C 243.204 186.578,244.250 185.972,244.105 185.737 C 244.045 185.640,244.090 185.619,244.205 185.690 C 244.471 185.855,245.516 185.248,245.372 185.013 C 245.312 184.917,245.352 184.893,245.461 184.960 C 245.713 185.116,246.810 184.460,246.630 184.261 C 246.556 184.179,246.596 184.171,246.721 184.242 C 246.994 184.399,247.724 183.928,247.534 183.718 C 247.460 183.636,247.496 183.625,247.615 183.693 C 247.883 183.847,248.985 183.198,248.801 182.995 C 248.727 182.913,248.767 182.904,248.892 182.976 C 249.165 183.133,249.895 182.662,249.705 182.451 C 249.631 182.370,249.671 182.361,249.793 182.431 C 250.065 182.587,251.342 181.756,251.152 181.547 C 251.078 181.465,251.119 181.457,251.243 181.528 C 251.516 181.685,252.247 181.214,252.057 181.004 C 251.983 180.922,252.023 180.913,252.145 180.984 C 252.381 181.119,253.711 180.320,253.537 180.147 C 253.482 180.091,253.584 180.057,253.765 180.072 C 253.945 180.087,254.076 180.007,254.055 179.895 C 254.034 179.782,254.156 179.701,254.326 179.714 C 254.497 179.727,254.617 179.639,254.593 179.518 C 254.568 179.392,254.663 179.342,254.817 179.401 C 254.969 179.459,255.133 179.378,255.196 179.215 C 255.257 179.056,255.380 178.971,255.470 179.027 C 255.560 179.082,255.682 179.001,255.742 178.846 C 255.801 178.691,255.918 178.606,256.001 178.657 C 256.084 178.708,256.218 178.632,256.298 178.488 C 256.379 178.344,256.526 178.199,256.626 178.168 C 256.725 178.136,256.787 178.048,256.762 177.974 C 256.737 177.899,256.859 177.835,257.033 177.832 C 257.207 177.828,257.594 177.616,257.892 177.359 C 258.191 177.103,258.321 176.956,258.181 177.032 C 258.010 177.125,257.970 177.100,258.059 176.957 C 258.132 176.839,258.287 176.763,258.404 176.787 C 258.731 176.856,259.623 176.195,259.491 175.981 C 259.427 175.877,259.459 175.844,259.562 175.908 C 259.817 176.066,260.730 175.325,260.580 175.082 C 260.513 174.975,260.544 174.939,260.647 175.004 C 260.903 175.161,261.816 174.421,261.665 174.177 C 261.594 174.062,261.630 174.036,261.754 174.112 C 261.872 174.185,262.256 173.971,262.641 173.617 C 263.014 173.274,263.746 172.608,264.267 172.137 C 264.787 171.666,265.168 171.208,265.113 171.118 C 265.057 171.028,265.119 170.977,265.251 171.004 C 265.383 171.031,265.468 170.946,265.441 170.814 C 265.414 170.682,265.464 170.619,265.553 170.674 C 265.771 170.809,266.341 170.159,266.170 169.970 C 266.095 169.887,266.130 169.875,266.248 169.943 C 266.519 170.098,269.610 166.665,269.443 166.395 C 269.376 166.287,269.410 166.257,269.521 166.325 C 269.745 166.464,270.320 165.739,270.173 165.502 C 270.120 165.416,270.185 165.368,270.317 165.396 C 270.448 165.423,270.534 165.338,270.507 165.206 C 270.479 165.074,270.536 165.015,270.633 165.075 C 270.822 165.192,271.233 164.574,271.093 164.384 C 271.046 164.321,271.063 164.310,271.129 164.360 C 271.307 164.494,272.623 162.587,272.501 162.372 C 272.444 162.271,272.465 162.250,272.547 162.324 C 272.756 162.514,273.948 160.692,273.792 160.421 C 273.722 160.299,273.731 160.260,273.813 160.334 C 274.018 160.520,274.497 159.795,274.338 159.538 C 274.267 159.423,274.287 159.377,274.382 159.436 C 274.616 159.581,275.767 157.630,275.604 157.366 C 275.531 157.248,275.555 157.207,275.659 157.272 C 275.855 157.393,276.567 155.989,276.466 155.680 C 276.433 155.578,276.469 155.558,276.545 155.635 C 276.622 155.711,277.118 154.864,277.647 153.752 C 278.177 152.639,278.572 151.692,278.527 151.646 C 278.481 151.600,278.566 151.440,278.716 151.289 C 278.867 151.139,278.945 150.900,278.891 150.759 C 278.836 150.617,278.864 150.546,278.952 150.600 C 279.145 150.719,279.374 150.193,279.230 149.961 C 279.174 149.871,279.223 149.796,279.339 149.796 C 279.456 149.796,279.502 149.671,279.443 149.516 C 279.383 149.361,279.407 149.279,279.495 149.334 C 279.688 149.453,279.916 148.927,279.773 148.695 C 279.717 148.604,279.746 148.530,279.838 148.530 C 280.047 148.530,280.675 146.920,280.525 146.770 C 280.465 146.709,280.535 146.527,280.682 146.365 C 280.998 146.016,281.542 144.551,281.358 144.547 C 281.288 144.546,281.320 144.485,281.429 144.412 C 281.604 144.295,282.383 142.200,282.473 141.603 C 282.492 141.483,282.557 141.303,282.618 141.203 C 282.848 140.831,283.301 139.072,283.206 138.919 C 283.153 138.832,283.200 138.761,283.312 138.761 C 283.438 138.761,283.469 138.613,283.394 138.376 C 283.324 138.155,283.343 138.036,283.440 138.096 C 283.657 138.230,284.108 136.493,283.931 136.207 C 283.851 136.077,283.874 136.039,283.990 136.110 C 284.109 136.184,284.238 135.933,284.324 135.460 C 284.484 134.587,284.480 134.605,284.626 134.238 C 284.890 133.578,285.713 129.584,285.732 128.874 C 285.744 128.442,285.804 128.089,285.867 128.088 C 286.030 128.086,286.617 124.136,286.500 123.830 C 286.446 123.690,286.485 123.524,286.587 123.461 C 286.689 123.398,286.750 123.089,286.723 122.774 C 286.696 122.459,286.736 122.102,286.811 121.980 C 286.886 121.859,286.945 121.331,286.942 120.807 C 286.939 120.284,287.021 118.390,287.125 116.599 C 287.228 114.808,287.268 112.895,287.214 112.347 C 287.160 111.800,287.109 110.701,287.100 109.905 C 287.074 107.404,286.592 102.921,286.254 102.035 C 286.197 101.886,286.127 101.647,286.098 101.503 C 285.929 100.658,285.786 100.312,285.515 100.088 C 285.347 99.950,285.311 99.888,285.434 99.951 C 285.582 100.025,285.622 99.968,285.551 99.784 C 285.492 99.630,285.358 99.557,285.254 99.622 C 285.145 99.689,285.117 99.653,285.190 99.536 C 285.531 98.984,284.166 97.874,283.147 97.874 C 282.500 97.874,281.655 98.227,281.788 98.441 C 281.840 98.525,281.767 98.550,281.626 98.495 C 281.112 98.298,279.428 100.982,279.290 102.216 C 279.263 102.465,279.187 102.709,279.122 102.759 C 279.057 102.809,278.964 103.109,278.914 103.426 C 278.864 103.744,278.776 104.079,278.719 104.171 C 278.621 104.330,278.518 105.072,278.339 106.920 C 278.232 108.025,277.861 112.427,277.791 113.433 C 277.759 113.881,277.693 114.369,277.644 114.518 C 277.424 115.179,277.151 117.072,277.251 117.234 C 277.312 117.332,277.285 117.413,277.191 117.413 C 277.097 117.413,276.965 117.778,276.898 118.223 C 276.831 118.669,276.578 119.856,276.334 120.862 C 276.091 121.868,275.937 122.765,275.993 122.856 C 276.050 122.947,276.008 123.021,275.900 123.021 C 275.791 123.021,275.741 123.221,275.788 123.477 C 275.842 123.777,275.803 123.891,275.673 123.811 C 275.543 123.731,275.509 123.821,275.574 124.070 C 275.629 124.280,275.622 124.475,275.557 124.505 C 275.409 124.574,274.020 128.799,274.012 129.204 C 274.009 129.371,273.957 129.477,273.897 129.440 C 273.719 129.330,273.326 130.599,273.468 130.827 C 273.542 130.948,273.519 130.989,273.413 130.924 C 273.189 130.785,272.048 133.294,272.214 133.562 C 272.287 133.681,272.242 133.696,272.091 133.603 C 271.916 133.495,271.884 133.538,271.971 133.765 C 272.051 133.975,272.022 134.034,271.880 133.946 C 271.739 133.859,271.710 133.918,271.790 134.127 C 271.861 134.312,271.836 134.393,271.730 134.327 C 271.569 134.228,271.473 134.467,271.530 134.826 C 271.542 134.900,271.476 134.962,271.384 134.962 C 271.138 134.962,270.093 136.968,270.227 137.185 C 270.289 137.286,270.255 137.317,270.151 137.252 C 269.985 137.149,269.739 137.484,269.759 137.784 C 269.763 137.842,269.626 137.991,269.455 138.117 C 269.256 138.262,269.197 138.435,269.291 138.598 C 269.372 138.737,269.370 138.789,269.287 138.714 C 269.097 138.541,268.458 139.490,268.605 139.727 C 268.664 139.823,268.626 139.848,268.519 139.783 C 268.309 139.652,267.445 140.907,267.542 141.203 C 267.575 141.303,267.542 141.325,267.469 141.252 C 267.298 141.080,266.303 142.410,266.439 142.630 C 266.495 142.722,266.457 142.744,266.353 142.680 C 266.250 142.616,266.064 142.685,265.941 142.833 C 265.818 142.981,265.758 143.103,265.807 143.103 C 265.855 143.103,265.560 143.452,265.150 143.878 C 264.741 144.305,263.767 145.323,262.987 146.140 C 262.207 146.957,261.510 147.626,261.438 147.626 C 261.172 147.626,260.334 148.651,260.468 148.814 C 260.544 148.907,260.535 148.925,260.448 148.854 C 260.223 148.672,259.047 149.613,259.190 149.862 C 259.254 149.975,259.242 150.009,259.163 149.938 C 258.948 149.743,257.957 150.510,258.100 150.760 C 258.167 150.877,258.157 150.914,258.077 150.842 C 257.871 150.655,256.869 151.414,257.014 151.647 C 257.085 151.763,257.049 151.790,256.927 151.714 C 256.812 151.644,256.514 151.791,256.262 152.044 C 256.010 152.296,255.744 152.512,255.672 152.524 C 255.600 152.536,255.563 152.626,255.590 152.723 C 255.618 152.820,255.569 152.855,255.482 152.801 C 255.267 152.668,254.154 153.506,254.322 153.673 C 254.395 153.747,254.374 153.783,254.274 153.753 C 253.967 153.662,253.262 154.145,253.392 154.356 C 253.463 154.470,253.434 154.505,253.325 154.438 C 253.220 154.373,252.419 154.809,251.545 155.405 C 250.670 156.002,250.026 156.490,250.114 156.490 C 250.201 156.490,250.116 156.605,249.924 156.746 C 249.731 156.886,249.517 156.966,249.448 156.923 C 249.243 156.796,248.201 157.502,248.350 157.666 C 248.424 157.748,248.371 157.748,248.231 157.668 C 248.073 157.576,247.903 157.623,247.779 157.792 C 247.670 157.942,247.540 158.064,247.490 158.065 C 247.109 158.068,246.602 158.361,246.701 158.521 C 246.770 158.634,246.738 158.665,246.626 158.596 C 246.400 158.456,245.138 159.010,245.138 159.248 C 245.138 159.335,245.064 159.360,244.973 159.305 C 244.721 159.149,244.220 159.398,244.353 159.613 C 244.417 159.717,244.390 159.753,244.291 159.692 C 244.192 159.631,243.590 159.740,242.951 159.934 C 241.352 160.420,240.507 160.404,240.235 159.882 C 240.119 159.659,240.087 159.535,240.166 159.608 C 240.353 159.784,240.828 158.860,240.677 158.614 C 240.608 158.503,240.646 158.478,240.768 158.554 C 240.958 158.671,241.061 158.445,240.994 158.060 C 240.980 157.978,241.031 157.949,241.108 157.997 C 241.383 158.166,245.922 151.499,245.922 150.927 C 245.922 150.803,245.995 150.701,246.083 150.701 C 246.172 150.701,246.194 150.620,246.133 150.520 C 246.071 150.421,246.093 150.339,246.181 150.339 C 246.415 150.339,247.337 147.998,247.194 147.767 C 247.127 147.658,247.153 147.620,247.253 147.681 C 247.450 147.803,247.895 146.575,247.743 146.329 C 247.691 146.246,247.726 146.178,247.819 146.178 C 248.043 146.178,248.440 144.589,248.281 144.332 C 248.213 144.222,248.237 144.182,248.335 144.242 C 248.537 144.367,249.032 142.137,248.863 141.863 C 248.803 141.766,248.852 141.654,248.972 141.614 C 249.292 141.507,249.283 136.936,248.960 135.824 C 248.813 135.319,248.633 135.016,248.522 135.085 C 248.407 135.156,248.376 135.089,248.444 134.911 C 248.641 134.398,247.457 133.537,246.547 133.533 C 245.322 133.526,244.398 133.704,244.532 133.920 C 244.600 134.030,244.566 134.060,244.453 133.991 C 244.071 133.755,241.385 135.864,241.608 136.224 C 241.657 136.303,241.555 136.479,241.382 136.615 C 241.093 136.841,241.088 136.831,241.317 136.499 C 241.454 136.300,241.310 136.406,240.995 136.734 C 240.681 137.062,240.479 137.421,240.547 137.531 C 240.615 137.641,240.590 137.681,240.491 137.620 C 240.300 137.502,239.518 138.443,239.456 138.864 C 239.436 139.000,239.350 139.176,239.265 139.253 C 239.179 139.331,239.170 139.272,239.243 139.123 C 239.316 138.973,239.250 139.006,239.097 139.194 C 238.943 139.383,238.862 139.609,238.916 139.696 C 238.970 139.784,238.935 139.833,238.838 139.805 C 238.621 139.744,237.340 141.386,237.278 141.804 C 237.254 141.971,237.137 142.108,237.018 142.108 C 236.741 142.108,236.446 142.581,236.584 142.805 C 236.643 142.900,236.602 142.923,236.494 142.856 C 236.257 142.709,235.700 143.449,235.856 143.703 C 235.917 143.802,235.879 143.828,235.772 143.762 C 235.590 143.649,234.871 144.460,234.861 144.791 C 234.858 144.874,234.795 144.996,234.721 145.063 C 234.647 145.129,234.647 145.061,234.719 144.912 C 234.792 144.763,234.647 144.880,234.397 145.173 C 234.147 145.465,233.985 145.773,234.036 145.856 C 234.087 145.938,234.049 145.984,233.951 145.957 C 233.723 145.893,231.753 148.148,231.803 148.417 C 231.824 148.529,231.745 148.602,231.627 148.579 C 231.510 148.557,231.204 148.801,230.948 149.122 C 230.692 149.443,230.340 149.854,230.166 150.036 C 229.993 150.217,229.851 150.461,229.851 150.578 C 229.851 150.696,229.769 150.793,229.670 150.794 C 229.333 150.799,229.030 151.087,229.152 151.284 C 229.220 151.394,229.190 151.429,229.085 151.364 C 228.981 151.300,228.531 151.674,228.085 152.195 C 227.638 152.717,226.492 153.909,225.538 154.845 C 224.584 155.781,223.847 156.617,223.901 156.704 C 223.954 156.790,223.929 156.839,223.844 156.811 C 223.598 156.732,221.445 158.707,221.566 158.902 C 221.626 158.999,221.593 159.028,221.493 158.966 C 221.263 158.824,220.481 159.634,220.668 159.820 C 220.743 159.896,220.713 159.931,220.601 159.897 C 220.488 159.864,220.194 160.041,219.946 160.289 C 219.698 160.538,219.161 161.010,218.751 161.338 C 218.341 161.665,218.025 162.028,218.049 162.144 C 218.072 162.259,217.969 162.361,217.820 162.370 C 217.671 162.379,217.571 162.491,217.598 162.618 C 217.626 162.745,217.579 162.807,217.495 162.755 C 217.325 162.649,214.909 164.762,214.974 164.959 C 214.997 165.028,214.957 165.084,214.884 165.084 C 214.616 165.084,211.872 167.958,211.977 168.129 C 212.037 168.226,211.998 168.251,211.891 168.184 C 211.641 168.030,208.736 171.297,208.894 171.554 C 208.959 171.658,208.926 171.690,208.821 171.625 C 208.611 171.496,205.819 175.026,205.819 175.421 C 205.819 175.557,205.778 175.626,205.728 175.576 C 205.580 175.428,204.622 176.983,204.742 177.176 C 204.801 177.272,204.771 177.302,204.674 177.242 C 204.469 177.115,203.232 179.073,203.307 179.405 C 203.335 179.528,203.187 179.720,202.977 179.833 C 202.727 179.966,202.635 180.139,202.709 180.334 C 202.772 180.497,202.765 180.573,202.693 180.501 C 202.509 180.316,201.498 182.150,201.649 182.395 C 201.719 182.507,201.694 182.548,201.594 182.486 C 201.415 182.376,200.500 184.105,200.588 184.387 C 200.613 184.467,200.547 184.532,200.442 184.532 C 200.336 184.532,200.296 184.606,200.352 184.697 C 200.409 184.788,200.383 184.890,200.295 184.923 C 200.018 185.029,198.987 187.251,199.117 187.462 C 199.186 187.573,199.161 187.613,199.060 187.551 C 198.840 187.415,197.879 189.566,198.041 189.829 C 198.105 189.932,198.076 189.966,197.979 189.906 C 197.762 189.771,196.612 192.460,196.774 192.722 C 196.838 192.825,196.808 192.859,196.709 192.798 C 196.507 192.673,195.523 194.988,195.674 195.232 C 195.727 195.317,195.690 195.387,195.593 195.387 C 195.431 195.387,194.918 196.559,194.803 197.196 C 194.776 197.345,194.684 197.518,194.600 197.579 C 194.516 197.641,194.434 197.899,194.419 198.152 C 194.404 198.405,194.354 198.575,194.309 198.530 C 194.184 198.405,192.656 202.812,192.764 202.985 C 192.815 203.068,192.787 203.162,192.702 203.196 C 192.494 203.278,191.729 205.850,191.853 206.051 C 191.907 206.139,191.875 206.238,191.781 206.271 C 191.687 206.305,191.577 206.536,191.536 206.784 C 191.495 207.033,191.406 207.364,191.337 207.520 C 191.269 207.676,191.195 208.042,191.174 208.334 C 191.153 208.626,191.090 208.905,191.035 208.955 C 190.915 209.063,190.295 211.932,190.344 212.150 C 190.363 212.234,190.332 212.424,190.275 212.573 C 190.163 212.870,189.815 214.850,189.799 215.287 C 189.793 215.436,189.679 216.332,189.545 217.277 C 189.282 219.131,189.155 219.072,188.953 217.006 C 188.885 216.309,188.784 215.662,188.728 215.567 C 188.672 215.472,188.616 215.187,188.604 214.934 C 188.537 213.512,188.497 213.285,188.333 213.386 C 188.229 213.450,188.201 213.375,188.265 213.207 C 188.403 212.849,187.585 208.774,187.376 208.774 C 187.292 208.774,187.271 208.698,187.329 208.604 C 187.456 208.399,186.867 206.176,186.664 206.090 C 186.584 206.057,186.565 205.956,186.621 205.867 C 186.802 205.572,183.941 197.171,183.617 197.048 C 183.534 197.017,183.517 196.861,183.578 196.702 C 183.646 196.524,183.615 196.458,183.498 196.531 C 183.392 196.596,183.310 196.548,183.314 196.425 C 183.337 195.806,183.251 195.555,183.057 195.675 C 182.935 195.751,182.897 195.725,182.965 195.614 C 183.116 195.371,182.653 194.251,182.475 194.428 C 182.402 194.502,182.396 194.422,182.461 194.250 C 182.532 194.066,182.495 193.939,182.370 193.939 C 182.254 193.939,182.203 193.867,182.258 193.778 C 182.407 193.537,181.559 191.728,181.376 191.895 C 181.289 191.975,181.270 191.947,181.335 191.834 C 181.504 191.538,181.097 190.479,180.868 190.621 C 180.763 190.686,180.729 190.654,180.794 190.550 C 180.954 190.290,180.126 188.459,179.929 188.639 C 179.841 188.718,179.823 188.690,179.888 188.577 C 180.047 188.299,179.225 186.466,179.024 186.649 C 178.937 186.728,178.922 186.695,178.991 186.575 C 179.136 186.323,177.381 182.723,177.113 182.723 C 177.014 182.723,176.953 182.662,176.977 182.587 C 177.066 182.306,176.522 181.285,176.342 181.396 C 176.234 181.463,176.208 181.425,176.281 181.306 C 176.425 181.074,175.548 179.466,175.277 179.466 C 175.182 179.466,175.144 179.399,175.195 179.317 C 175.334 179.093,173.411 176.176,173.232 176.339 C 173.146 176.417,173.129 176.389,173.194 176.276 C 173.345 176.010,171.559 173.567,171.272 173.647 C 171.152 173.680,171.112 173.649,171.183 173.578 C 171.386 173.375,170.973 172.747,170.728 172.887 C 170.609 172.955,170.569 172.947,170.640 172.868 C 170.820 172.669,170.443 172.014,170.226 172.148 C 170.129 172.208,170.072 172.190,170.099 172.108 C 170.184 171.850,169.124 170.599,168.925 170.722 C 168.821 170.786,168.789 170.753,168.854 170.648 C 169.010 170.396,167.366 168.577,167.119 168.730 C 167.014 168.795,166.978 168.767,167.039 168.667 C 167.160 168.472,163.258 164.546,162.930 164.533 C 162.821 164.528,162.749 164.435,162.771 164.326 C 162.817 164.087,159.565 161.082,159.337 161.153 C 159.249 161.181,159.220 161.134,159.272 161.049 C 159.378 160.878,157.750 159.449,157.532 159.521 C 157.457 159.545,157.415 159.495,157.440 159.408 C 157.494 159.220,150.692 152.452,150.430 152.433 C 150.330 152.426,150.245 152.298,150.241 152.148 C 150.236 151.999,150.128 151.899,150.001 151.927 C 149.874 151.954,149.815 151.902,149.871 151.812 C 149.989 151.621,149.551 151.203,149.373 151.336 C 149.307 151.385,149.297 151.367,149.351 151.297 C 149.404 151.227,149.245 150.963,148.998 150.709 C 148.750 150.456,148.249 149.903,147.886 149.481 C 147.522 149.059,147.152 148.759,147.063 148.814 C 146.974 148.868,146.902 148.793,146.902 148.646 C 146.902 148.254,144.889 145.992,144.657 146.124 C 144.549 146.186,144.518 146.171,144.590 146.092 C 144.777 145.885,144.018 144.884,143.785 145.028 C 143.677 145.094,143.639 145.069,143.699 144.971 C 143.759 144.874,143.418 144.312,142.941 143.722 C 142.464 143.133,141.501 141.901,140.801 140.985 C 140.101 140.069,139.471 139.377,139.401 139.447 C 139.331 139.517,139.297 139.493,139.327 139.394 C 139.418 139.087,138.935 138.381,138.724 138.512 C 138.613 138.581,138.575 138.554,138.638 138.451 C 138.792 138.202,137.500 136.565,137.264 136.711 C 137.154 136.778,137.131 136.738,137.208 136.614 C 137.353 136.379,135.374 134.366,135.140 134.511 C 135.063 134.559,134.950 134.468,134.889 134.309 C 134.823 134.138,134.663 134.064,134.498 134.127 C 134.345 134.186,134.264 134.161,134.319 134.073 C 134.467 133.832,133.556 133.577,132.429 133.542 C 131.387 133.510,130.494 133.838,130.579 134.221 C 130.606 134.345,130.549 134.396,130.451 134.336 C 130.221 134.194,129.661 135.270,129.826 135.538 C 129.903 135.662,129.870 135.691,129.743 135.612 C 129.613 135.532,129.522 135.624,129.502 135.855 C 129.405 137.002,129.372 137.298,129.255 138.072 C 129.184 138.539,129.185 139.069,129.256 139.248 C 129.376 139.548,129.492 140.809,129.517 142.075 C 129.523 142.419,129.596 142.543,129.739 142.455 C 129.868 142.375,129.904 142.401,129.830 142.521 C 129.644 142.822,129.910 144.201,130.127 144.066 C 130.233 144.001,130.259 144.040,130.187 144.156 C 129.943 144.550,131.457 149.136,131.767 148.944 C 131.863 148.885,131.887 148.925,131.820 149.034 C 131.657 149.297,132.809 151.616,133.033 151.477 C 133.130 151.417,133.150 151.463,133.079 151.577 C 132.921 151.834,133.399 152.560,133.605 152.373 C 133.686 152.299,133.696 152.339,133.626 152.460 C 133.496 152.686,134.646 154.575,134.812 154.409 C 134.861 154.360,134.901 154.428,134.901 154.561 C 134.901 154.879,136.570 157.214,136.797 157.214 C 136.894 157.214,136.930 157.283,136.878 157.367 C 136.826 157.451,137.045 157.792,137.365 158.124 C 137.685 158.455,137.839 158.663,137.707 158.585 C 137.510 158.468,137.509 158.508,137.698 158.812 C 137.825 159.015,137.973 159.153,138.028 159.119 C 138.083 159.086,138.148 159.335,138.173 159.674 C 138.217 160.280,137.577 160.540,136.680 160.280 C 136.581 160.251,136.324 160.221,136.110 160.213 C 135.895 160.205,135.764 160.127,135.818 160.040 C 135.872 159.952,135.806 159.918,135.670 159.963 C 135.534 160.008,135.228 159.944,134.989 159.820 C 134.750 159.696,134.429 159.643,134.276 159.701 C 134.109 159.765,134.044 159.733,134.114 159.620 C 134.181 159.512,133.865 159.286,133.375 159.092 C 132.531 158.758,132.407 158.723,131.901 158.682 C 131.760 158.671,131.699 158.607,131.766 158.540 C 131.948 158.358,130.471 157.535,130.230 157.684 C 130.091 157.769,130.071 157.732,130.169 157.573 C 130.276 157.399,130.235 157.365,130.018 157.448 C 129.834 157.519,129.736 157.479,129.762 157.343 C 129.786 157.222,129.664 157.135,129.491 157.148 C 129.318 157.162,129.221 157.101,129.275 157.013 C 129.372 156.857,129.088 156.772,128.720 156.846 C 128.621 156.866,128.602 156.819,128.679 156.742 C 128.836 156.585,126.998 155.386,126.794 155.512 C 126.723 155.556,126.606 155.496,126.534 155.380 C 126.447 155.239,126.488 155.213,126.657 155.302 C 126.797 155.376,126.707 155.268,126.459 155.063 C 126.004 154.687,125.798 154.607,125.464 154.675 C 125.364 154.695,125.342 154.652,125.414 154.580 C 125.589 154.405,123.911 153.222,123.685 153.361 C 123.588 153.421,123.561 153.386,123.625 153.282 C 123.750 153.079,121.840 151.545,121.461 151.545 C 121.335 151.545,121.248 151.485,121.267 151.410 C 121.287 151.336,120.647 150.719,119.845 150.038 C 117.107 147.715,115.567 146.269,114.192 144.731 C 113.436 143.885,112.752 143.213,112.673 143.238 C 112.593 143.263,112.549 143.182,112.573 143.057 C 112.598 142.933,112.517 142.852,112.393 142.877 C 112.268 142.901,112.184 142.861,112.205 142.786 C 112.287 142.498,111.779 141.830,111.569 141.951 C 111.450 142.019,111.411 142.011,111.482 141.932 C 111.680 141.712,111.275 141.085,111.027 141.227 C 110.907 141.296,110.868 141.287,110.939 141.208 C 111.130 140.996,110.734 140.358,110.501 140.502 C 110.391 140.570,110.348 140.550,110.406 140.457 C 110.552 140.221,108.288 136.733,108.100 136.904 C 108.016 136.980,108.014 136.928,108.095 136.788 C 108.186 136.630,108.140 136.460,107.970 136.336 C 107.697 136.137,107.644 136.029,107.644 135.675 C 107.644 135.569,107.563 135.533,107.465 135.593 C 107.359 135.659,107.334 135.578,107.405 135.394 C 107.485 135.184,107.456 135.125,107.315 135.213 C 107.173 135.300,107.144 135.241,107.224 135.032 C 107.311 134.804,107.279 134.761,107.104 134.869 C 106.951 134.964,106.907 134.947,106.983 134.825 C 107.113 134.614,106.559 133.517,106.321 133.515 C 106.241 133.515,106.225 133.433,106.287 133.333 C 106.348 133.234,106.308 133.152,106.196 133.152 C 106.085 133.152,106.040 133.078,106.096 132.988 C 106.252 132.736,106.003 132.234,105.788 132.367 C 105.683 132.432,105.651 132.399,105.715 132.294 C 105.871 132.042,105.212 130.582,105.021 130.756 C 104.939 130.830,104.925 130.798,104.990 130.685 C 105.054 130.572,104.792 129.635,104.407 128.604 C 104.021 127.573,103.649 126.465,103.580 126.140 C 103.504 125.788,103.375 125.599,103.259 125.671 C 103.151 125.738,103.117 125.707,103.182 125.601 C 103.333 125.357,103.120 124.266,102.944 124.376 C 102.871 124.421,102.850 124.257,102.897 124.011 C 102.948 123.741,102.898 123.564,102.769 123.564 C 102.652 123.564,102.594 123.503,102.640 123.428 C 102.686 123.354,102.447 122.071,102.110 120.579 C 101.772 119.086,101.495 117.723,101.494 117.549 C 101.493 117.374,101.431 117.232,101.357 117.232 C 101.282 117.232,101.217 117.008,101.213 116.735 C 101.208 116.461,101.054 115.260,100.869 114.066 C 100.684 112.872,100.547 111.665,100.565 111.384 C 100.582 111.104,100.533 110.913,100.456 110.960 C 100.379 111.008,100.316 110.383,100.315 109.571 C 100.313 107.296,100.079 105.289,99.588 103.356 C 99.342 102.385,99.141 101.564,99.141 101.531 C 99.141 101.498,99.047 101.529,98.932 101.600 C 98.801 101.681,98.772 101.650,98.855 101.516 C 99.042 101.213,98.257 99.652,97.994 99.802 C 97.878 99.868,97.842 99.858,97.913 99.779 C 98.104 99.567,97.709 98.929,97.475 99.073 C 97.360 99.144,97.326 99.114,97.396 99.002 C 97.727 98.467,95.299 97.620,94.481 97.985 M120.669 106.218 C 120.058 106.460,119.028 107.476,119.167 107.700 C 119.228 107.799,119.192 107.827,119.087 107.762 C 118.870 107.628,118.080 108.854,118.229 109.094 C 118.282 109.179,118.208 109.316,118.065 109.396 C 117.921 109.477,117.777 109.665,117.744 109.815 C 117.711 109.964,117.639 110.127,117.583 110.176 C 117.320 110.410,116.671 112.352,116.791 112.546 C 116.870 112.674,116.850 112.718,116.744 112.653 C 116.541 112.527,116.072 113.889,116.230 114.145 C 116.285 114.234,116.234 114.338,116.117 114.377 C 116.001 114.416,115.898 114.741,115.890 115.098 C 115.882 115.456,115.801 115.703,115.711 115.648 C 115.621 115.593,115.593 115.723,115.649 115.937 C 115.705 116.152,115.688 116.327,115.612 116.327 C 115.435 116.327,115.031 118.304,115.164 118.519 C 115.219 118.607,115.191 118.679,115.103 118.679 C 114.922 118.679,114.448 121.021,114.599 121.172 C 114.652 121.225,114.623 121.358,114.534 121.467 C 114.444 121.576,114.271 122.641,114.148 123.835 C 113.940 125.861,113.953 126.841,114.252 131.748 C 114.345 133.273,115.093 136.730,115.376 136.940 C 115.451 136.996,115.530 137.211,115.551 137.417 C 115.571 137.623,115.685 138.030,115.805 138.321 C 115.924 138.613,116.041 138.943,116.065 139.055 C 116.188 139.636,116.369 140.027,116.515 140.027 C 116.605 140.027,116.626 140.163,116.562 140.328 C 116.479 140.547,116.513 140.589,116.686 140.481 C 116.841 140.386,116.883 140.403,116.804 140.530 C 116.656 140.770,117.203 142.198,117.443 142.198 C 117.538 142.198,117.563 142.282,117.500 142.384 C 117.372 142.591,118.220 144.143,118.666 144.518 C 118.898 144.714,118.901 144.736,118.679 144.640 C 118.516 144.570,118.539 144.630,118.737 144.791 C 118.917 144.939,119.060 145.108,119.053 145.167 C 119.014 145.516,119.059 145.646,119.192 145.564 C 119.275 145.512,119.343 145.570,119.343 145.692 C 119.343 146.011,120.327 147.454,120.480 147.359 C 120.551 147.315,120.609 147.380,120.609 147.503 C 120.609 147.887,121.242 148.714,121.441 148.591 C 121.545 148.527,121.579 148.556,121.518 148.656 C 121.404 148.840,122.984 151.160,123.126 151.018 C 123.215 150.930,122.836 149.753,122.675 149.616 C 122.617 149.566,122.567 149.444,122.566 149.344 C 122.555 148.735,122.054 147.281,121.890 147.383 C 121.777 147.452,121.752 147.414,121.830 147.289 C 121.901 147.173,121.751 146.351,121.496 145.463 C 121.240 144.575,121.031 143.717,121.031 143.555 C 121.031 143.394,120.962 143.305,120.876 143.358 C 120.791 143.410,120.760 143.252,120.807 143.007 C 120.854 142.761,120.822 142.559,120.736 142.559 C 120.649 142.558,120.556 142.099,120.529 141.538 C 120.501 140.978,120.431 140.442,120.372 140.347 C 120.158 140.000,120.026 132.891,120.217 131.979 C 120.260 131.779,120.335 130.923,120.384 130.077 C 120.434 129.231,120.600 127.901,120.753 127.120 C 120.906 126.340,120.986 125.627,120.930 125.537 C 120.875 125.447,120.900 125.373,120.987 125.373 C 121.149 125.373,121.665 123.185,121.637 122.618 C 121.629 122.446,121.705 122.357,121.807 122.420 C 121.922 122.492,121.954 122.387,121.891 122.145 C 121.835 121.930,121.850 121.755,121.924 121.755 C 122.131 121.755,122.513 120.328,122.368 120.095 C 122.285 119.960,122.323 119.940,122.479 120.037 C 122.657 120.147,122.690 120.082,122.610 119.775 C 122.551 119.551,122.553 119.417,122.615 119.479 C 122.732 119.596,123.744 117.059,124.196 115.513 C 125.207 112.059,124.862 106.139,123.693 106.862 C 123.590 106.925,123.563 106.887,123.632 106.776 C 123.699 106.666,123.590 106.488,123.388 106.380 C 123.186 106.272,123.021 106.243,123.021 106.317 C 123.021 106.390,122.924 106.352,122.804 106.232 C 122.546 105.974,121.306 105.965,120.669 106.218 M255.601 106.235 C 255.463 106.363,255.231 106.491,255.084 106.520 C 254.674 106.599,253.969 107.475,254.080 107.766 C 254.135 107.908,254.109 107.981,254.024 107.928 C 253.625 107.681,253.507 111.375,253.847 113.438 C 253.972 114.193,254.127 114.644,254.237 114.576 C 254.347 114.508,254.364 114.554,254.279 114.691 C 254.114 114.958,254.706 117.051,254.947 117.051 C 255.036 117.051,255.064 117.124,255.009 117.213 C 254.900 117.390,255.334 118.554,255.462 118.426 C 255.505 118.383,255.553 118.524,255.568 118.740 C 255.583 118.955,255.699 119.376,255.824 119.674 C 255.950 119.973,256.063 120.258,256.076 120.308 C 256.470 121.832,256.631 122.260,256.776 122.170 C 256.876 122.109,256.896 122.154,256.821 122.274 C 256.699 122.472,257.232 124.988,257.439 125.192 C 257.489 125.242,257.552 125.568,257.578 125.916 C 257.605 126.264,257.676 126.671,257.736 126.820 C 257.870 127.154,257.915 127.531,258.075 129.715 C 258.145 130.660,258.254 131.474,258.318 131.524 C 258.424 131.606,258.449 132.166,258.499 135.504 C 258.508 136.052,258.463 137.110,258.400 137.856 C 258.337 138.602,258.279 139.559,258.270 139.982 C 258.261 140.405,258.203 140.751,258.139 140.751 C 258.035 140.751,257.731 142.447,257.717 143.103 C 257.714 143.252,257.645 143.423,257.565 143.482 C 257.484 143.541,257.403 143.887,257.384 144.250 C 257.365 144.613,257.304 144.911,257.248 144.911 C 257.164 144.912,256.819 146.058,256.639 146.941 C 256.613 147.069,256.494 147.411,256.375 147.702 C 256.256 147.993,256.202 148.343,256.255 148.480 C 256.307 148.617,256.282 148.687,256.198 148.636 C 256.115 148.584,255.881 149.109,255.678 149.802 C 255.476 150.496,255.362 151.062,255.426 151.060 C 255.582 151.056,257.169 148.778,257.169 148.556 C 257.169 148.459,257.243 148.311,257.333 148.229 C 257.429 148.141,257.444 148.173,257.368 148.304 C 257.057 148.843,257.436 148.464,257.885 147.786 C 258.156 147.376,258.268 147.105,258.135 147.182 C 258.001 147.260,258.198 147.021,258.571 146.651 C 258.944 146.282,259.255 145.923,259.263 145.853 C 259.324 145.291,259.466 145.010,259.885 144.622 C 260.172 144.356,260.325 144.063,260.263 143.901 C 260.205 143.750,260.226 143.669,260.310 143.721 C 260.516 143.848,260.914 142.946,260.761 142.699 C 260.694 142.590,260.724 142.556,260.830 142.621 C 261.061 142.764,261.659 141.353,261.486 141.073 C 261.408 140.946,261.450 140.929,261.604 141.024 C 261.778 141.131,261.812 141.090,261.728 140.871 C 261.664 140.705,261.689 140.570,261.782 140.570 C 261.875 140.570,261.900 140.434,261.836 140.269 C 261.770 140.096,261.795 140.014,261.895 140.075 C 262.122 140.216,263.123 137.399,262.946 137.114 C 262.855 136.966,262.888 136.943,263.049 137.042 C 263.226 137.152,263.260 137.090,263.184 136.799 C 263.119 136.549,263.151 136.451,263.275 136.527 C 263.398 136.604,263.431 136.506,263.365 136.256 C 263.309 136.041,263.325 135.904,263.400 135.950 C 263.578 136.060,264.013 134.119,263.864 133.879 C 263.802 133.778,263.845 133.695,263.961 133.695 C 264.097 133.695,264.148 133.419,264.107 132.898 C 264.072 132.460,264.108 132.141,264.187 132.190 C 264.266 132.239,264.334 131.723,264.337 131.042 C 264.340 130.362,264.353 128.503,264.366 126.911 C 264.389 123.998,264.335 122.695,264.181 122.421 C 264.135 122.339,264.069 121.871,264.035 121.380 C 264.001 120.889,263.916 120.394,263.845 120.280 C 263.775 120.166,263.688 119.743,263.651 119.340 C 263.615 118.936,263.526 118.562,263.453 118.507 C 263.380 118.453,263.317 118.286,263.314 118.137 C 263.299 117.472,262.995 116.158,262.873 116.233 C 262.799 116.279,262.780 116.103,262.829 115.843 C 262.879 115.582,262.847 115.414,262.758 115.469 C 262.669 115.523,262.588 115.341,262.578 115.063 C 262.568 114.785,262.494 114.407,262.415 114.222 C 262.335 114.037,262.247 113.763,262.219 113.614 C 262.086 112.918,261.520 111.472,261.407 111.542 C 261.337 111.585,261.284 111.519,261.288 111.396 C 261.309 110.815,261.224 110.527,261.060 110.627 C 260.954 110.693,260.930 110.612,261.001 110.427 C 261.088 110.200,261.056 110.157,260.880 110.265 C 260.720 110.364,260.684 110.343,260.771 110.203 C 260.941 109.927,260.151 108.347,259.916 108.493 C 259.815 108.555,259.792 108.513,259.864 108.397 C 260.042 108.108,258.903 106.739,258.485 106.739 C 258.296 106.739,258.187 106.667,258.241 106.579 C 258.510 106.144,256.043 105.823,255.601 106.235 M226.504 154.190 C 226.504 154.219,226.076 154.646,225.554 155.140 L 224.604 156.038 225.502 155.088 C 226.336 154.206,226.504 154.055,226.504 154.190 M213.478 166.676 C 213.478 166.707,213.173 167.012,212.800 167.355 L 212.121 167.978 212.745 167.300 C 213.325 166.668,213.478 166.538,213.478 166.676 M285.210 238.974 C 285.011 239.062,284.665 239.092,284.442 239.041 C 284.218 238.990,283.893 239.006,283.718 239.077 C 283.544 239.147,283.099 239.231,282.730 239.262 C 282.362 239.293,281.956 239.382,281.829 239.460 C 281.702 239.539,281.475 239.613,281.324 239.625 C 280.749 239.671,278.607 240.472,278.607 240.641 C 278.607 240.738,278.540 240.776,278.459 240.726 C 278.266 240.607,276.436 241.454,276.436 241.662 C 276.436 241.750,276.328 241.821,276.196 241.821 C 275.867 241.821,274.264 242.941,274.143 243.254 C 274.090 243.394,273.987 243.471,273.916 243.427 C 273.844 243.383,273.264 243.871,272.628 244.513 C 271.992 245.155,271.524 245.681,271.588 245.681 C 271.652 245.681,271.481 245.905,271.209 246.178 C 270.345 247.045,268.490 250.479,268.423 251.334 C 268.410 251.508,268.326 251.651,268.237 251.651 C 268.148 251.651,268.122 251.773,268.179 251.922 C 268.237 252.071,268.215 252.194,268.130 252.194 C 267.951 252.194,267.329 254.545,267.472 254.687 C 267.525 254.740,267.494 254.873,267.403 254.982 C 267.212 255.212,266.825 257.853,266.853 258.737 C 266.864 259.069,266.865 260.032,266.856 260.877 C 266.825 263.831,267.364 268.475,267.738 268.476 C 267.795 268.476,267.861 268.740,267.884 269.063 C 267.907 269.385,268.004 269.675,268.100 269.707 C 268.196 269.739,268.230 269.882,268.175 270.025 C 268.120 270.168,268.163 270.285,268.270 270.285 C 268.377 270.285,268.418 270.407,268.360 270.556 C 268.303 270.706,268.351 270.828,268.467 270.828 C 268.583 270.828,268.632 270.903,268.575 270.995 C 268.480 271.149,268.794 272.063,269.015 272.275 C 269.067 272.325,269.133 272.488,269.163 272.637 C 269.267 273.167,270.134 274.808,270.309 274.808 C 270.407 274.808,270.446 274.874,270.396 274.955 C 270.261 275.174,271.283 276.642,271.459 276.482 C 271.542 276.407,271.552 276.445,271.482 276.568 C 271.362 276.776,274.227 279.971,274.389 279.809 C 274.427 279.771,274.701 279.966,274.997 280.243 C 275.667 280.869,278.881 282.482,279.140 282.322 C 279.245 282.257,279.331 282.284,279.331 282.381 C 279.331 282.542,280.092 282.789,280.781 282.851 C 280.932 282.864,281.156 282.937,281.278 283.013 C 281.400 283.089,281.902 283.178,282.393 283.212 C 282.884 283.246,283.355 283.317,283.440 283.369 C 283.590 283.462,284.886 283.527,286.929 283.545 C 287.476 283.549,288.494 283.501,289.190 283.438 C 289.887 283.374,290.579 283.313,290.728 283.301 C 290.877 283.290,291.122 283.235,291.271 283.179 C 291.420 283.123,291.664 283.067,291.814 283.053 C 292.501 282.990,293.442 282.713,293.442 282.573 C 293.442 282.487,293.564 282.464,293.713 282.522 C 293.863 282.579,293.985 282.549,293.985 282.456 C 293.985 282.362,294.098 282.286,294.236 282.286 C 294.638 282.286,295.613 281.836,295.613 281.650 C 295.613 281.557,295.694 281.531,295.794 281.592 C 295.893 281.654,295.975 281.613,295.975 281.502 C 295.975 281.390,296.053 281.348,296.149 281.407 C 296.245 281.466,296.476 281.369,296.662 281.192 C 296.848 281.014,297.115 280.845,297.256 280.815 C 297.397 280.786,297.645 280.607,297.807 280.416 C 297.968 280.226,298.141 280.109,298.189 280.158 C 298.324 280.293,301.053 277.688,300.951 277.523 C 300.902 277.443,300.983 277.332,301.132 277.275 C 301.725 277.047,304.266 272.484,304.021 272.087 C 303.962 271.991,303.985 271.913,304.073 271.913 C 304.271 271.913,305.125 269.243,304.974 269.093 C 304.898 269.017,299.723 267.635,299.290 267.576 C 299.189 267.562,298.724 269.473,298.800 269.595 C 298.850 269.676,298.804 269.742,298.699 269.742 C 298.594 269.742,298.507 269.846,298.507 269.973 C 298.507 270.101,298.226 270.793,297.881 271.511 C 297.537 272.230,297.289 272.818,297.330 272.818 C 297.371 272.818,297.204 273.034,296.959 273.298 C 296.714 273.563,296.548 273.813,296.590 273.855 C 296.709 273.974,294.017 276.410,293.429 276.714 C 293.138 276.865,292.899 277.072,292.899 277.175 C 292.899 277.278,292.818 277.312,292.718 277.250 C 292.619 277.189,292.537 277.229,292.537 277.341 C 292.537 277.452,292.456 277.493,292.356 277.431 C 292.257 277.370,292.175 277.388,292.175 277.472 C 292.175 277.557,291.994 277.639,291.771 277.656 C 291.549 277.673,291.338 277.772,291.303 277.876 C 291.269 277.981,291.172 278.025,291.090 277.974 C 291.007 277.923,290.709 277.975,290.427 278.091 C 290.145 278.207,289.779 278.285,289.613 278.265 C 289.448 278.244,289.262 278.310,289.201 278.409 C 289.139 278.509,288.972 278.547,288.830 278.492 C 288.688 278.438,288.153 278.483,287.642 278.592 C 287.019 278.726,286.493 278.734,286.051 278.618 C 285.688 278.522,284.978 278.413,284.472 278.374 C 283.966 278.336,283.478 278.260,283.386 278.205 C 283.183 278.084,282.095 277.845,281.932 277.885 C 281.867 277.901,281.764 277.846,281.703 277.763 C 281.616 277.644,279.596 276.610,279.026 276.392 C 278.631 276.241,276.466 274.019,275.896 273.180 C 272.922 268.798,271.953 260.855,273.626 254.560 C 273.769 254.021,273.845 253.512,273.794 253.429 C 273.743 253.347,273.767 253.279,273.848 253.279 C 274.008 253.279,274.459 252.119,274.499 251.606 C 274.512 251.431,274.582 251.289,274.653 251.289 C 274.785 251.289,274.993 250.782,274.974 250.504 C 274.969 250.420,275.088 250.257,275.238 250.142 C 275.388 250.027,275.536 249.813,275.567 249.667 C 275.597 249.521,275.785 249.251,275.984 249.065 C 276.183 248.880,276.223 248.787,276.074 248.859 C 275.925 248.931,276.149 248.686,276.573 248.315 C 277.015 247.928,277.292 247.551,277.222 247.429 C 277.156 247.313,277.165 247.276,277.243 247.346 C 277.321 247.416,277.843 247.100,278.403 246.644 C 278.963 246.187,279.686 245.687,280.009 245.533 C 280.332 245.378,280.597 245.199,280.597 245.135 C 280.597 245.070,280.699 245.008,280.823 244.997 C 281.012 244.980,283.086 244.400,284.034 244.098 C 285.135 243.748,288.959 243.781,289.877 244.148 C 290.055 244.220,290.251 244.228,290.312 244.167 C 290.373 244.106,290.535 244.148,290.671 244.261 C 290.807 244.374,290.966 244.417,291.025 244.358 C 291.085 244.299,291.256 244.374,291.406 244.524 C 291.556 244.674,291.786 244.756,291.916 244.706 C 292.046 244.656,292.178 244.675,292.209 244.748 C 292.240 244.820,292.673 245.112,293.171 245.397 C 294.106 245.931,296.540 248.130,296.377 248.294 C 296.326 248.344,296.418 248.437,296.581 248.500 C 296.744 248.562,296.834 248.683,296.781 248.769 C 296.728 248.854,296.851 249.090,297.054 249.292 C 297.256 249.495,297.410 249.681,297.395 249.706 C 297.313 249.847,297.656 250.565,297.807 250.565 C 297.905 250.565,297.941 250.638,297.887 250.726 C 297.832 250.815,297.964 251.324,298.180 251.857 C 298.660 253.043,298.616 252.983,298.895 252.811 C 299.022 252.733,299.323 252.647,299.565 252.622 C 299.807 252.596,300.136 252.520,300.297 252.454 C 300.457 252.387,300.854 252.305,301.180 252.271 C 301.505 252.238,301.868 252.150,301.986 252.078 C 302.104 252.005,302.399 251.924,302.641 251.898 C 302.883 251.872,303.212 251.793,303.372 251.723 C 303.532 251.653,303.788 251.610,303.941 251.628 C 304.103 251.647,304.231 251.507,304.247 251.294 C 304.262 251.092,304.200 250.927,304.110 250.927 C 304.020 250.927,303.993 250.805,304.050 250.656 C 304.108 250.507,304.067 250.384,303.960 250.384 C 303.853 250.384,303.808 250.273,303.860 250.136 C 303.913 250.000,303.833 249.765,303.683 249.615 C 303.532 249.465,303.454 249.298,303.508 249.244 C 303.661 249.091,302.138 246.275,301.578 245.675 C 301.302 245.380,301.117 245.138,301.166 245.138 C 301.216 245.138,300.831 244.647,300.311 244.046 C 299.791 243.445,299.333 242.985,299.295 243.024 C 299.256 243.063,298.935 242.820,298.580 242.486 C 298.226 242.152,297.848 241.932,297.741 241.998 C 297.634 242.064,297.597 242.037,297.658 241.939 C 297.719 241.840,297.447 241.578,297.053 241.356 C 296.659 241.135,296.336 241.015,296.336 241.090 C 296.336 241.166,296.233 241.086,296.107 240.913 C 295.981 240.740,295.696 240.585,295.474 240.569 C 295.252 240.552,295.070 240.478,295.070 240.404 C 295.070 240.235,292.159 239.305,292.031 239.433 C 291.980 239.484,291.829 239.437,291.697 239.327 C 291.565 239.217,291.336 239.174,291.189 239.230 C 291.041 239.287,290.872 239.254,290.812 239.156 C 290.752 239.059,290.403 238.980,290.037 238.981 C 289.671 238.981,288.517 238.944,287.472 238.898 C 286.427 238.853,285.409 238.887,285.210 238.974 M328.564 238.962 C 328.429 239.051,328.166 239.084,327.979 239.035 C 327.793 238.986,327.496 239.004,327.321 239.076 C 327.145 239.147,326.700 239.231,326.331 239.262 C 325.962 239.293,325.556 239.382,325.429 239.460 C 325.302 239.539,325.075 239.613,324.924 239.625 C 324.369 239.670,322.207 240.469,322.207 240.630 C 322.207 240.721,322.146 240.777,322.071 240.753 C 321.843 240.680,320.760 241.191,320.760 241.371 C 320.760 241.465,320.681 241.493,320.586 241.433 C 320.490 241.374,320.259 241.471,320.073 241.649 C 319.887 241.827,319.629 241.996,319.499 242.025 C 318.634 242.221,315.373 245.382,314.108 247.250 C 313.300 248.444,312.738 249.480,312.898 249.480 C 312.958 249.480,312.878 249.609,312.720 249.766 C 312.563 249.923,312.481 250.127,312.537 250.218 C 312.594 250.310,312.574 250.384,312.493 250.384 C 312.149 250.384,310.699 255.081,310.889 255.577 C 310.936 255.700,310.898 255.848,310.804 255.905 C 310.711 255.963,310.629 256.190,310.624 256.409 C 310.618 256.628,310.567 257.214,310.512 257.711 C 310.064 261.705,310.789 269.432,311.675 270.097 C 311.746 270.151,311.828 270.317,311.856 270.466 C 311.957 270.997,312.663 272.637,312.790 272.637 C 312.862 272.637,312.920 272.753,312.920 272.895 C 312.920 273.298,314.089 275.160,314.788 275.870 C 315.136 276.223,315.298 276.442,315.150 276.357 C 314.882 276.204,316.196 277.643,317.232 278.637 C 318.636 279.983,323.203 282.595,323.659 282.313 C 323.756 282.253,323.835 282.282,323.835 282.377 C 323.835 282.533,325.304 282.976,326.010 283.034 C 326.161 283.046,326.376 283.113,326.489 283.183 C 326.602 283.253,326.885 283.311,327.119 283.313 C 327.353 283.316,328.114 283.370,328.810 283.435 C 330.780 283.619,331.972 283.583,334.929 283.252 C 335.408 283.198,335.904 283.068,336.031 282.962 C 336.157 282.857,336.309 282.819,336.368 282.878 C 336.427 282.937,336.579 282.921,336.706 282.843 C 336.833 282.764,337.119 282.681,337.342 282.657 C 339.096 282.470,345.252 278.911,345.043 278.205 C 345.016 278.113,345.068 278.083,345.158 278.139 C 345.249 278.195,345.705 277.794,346.172 277.248 C 346.638 276.702,346.955 276.255,346.876 276.255 C 346.796 276.255,346.913 276.127,347.136 275.971 C 347.359 275.815,347.494 275.612,347.437 275.519 C 347.380 275.426,347.415 275.351,347.516 275.351 C 347.966 275.351,350.396 270.489,350.147 270.086 C 350.092 269.996,350.141 269.923,350.257 269.923 C 350.373 269.923,350.424 269.806,350.369 269.663 C 350.314 269.521,350.357 269.375,350.464 269.339 C 350.571 269.303,350.668 269.013,350.680 268.694 C 350.692 268.376,350.772 268.115,350.858 268.114 C 350.944 268.114,350.972 267.951,350.920 267.752 C 350.868 267.553,350.891 267.350,350.971 267.301 C 351.364 267.058,351.705 261.836,351.538 258.616 C 351.482 257.541,351.093 255.253,350.951 255.165 C 350.860 255.109,350.829 254.992,350.883 254.906 C 351.018 254.687,350.407 252.555,350.208 252.555 C 350.119 252.555,350.094 252.479,350.151 252.386 C 350.288 252.165,349.358 249.842,349.133 249.842 C 349.039 249.842,349.004 249.772,349.057 249.687 C 349.168 249.507,348.005 247.495,347.620 247.201 C 347.477 247.091,347.400 246.962,347.449 246.913 C 347.497 246.864,347.011 246.208,346.368 245.454 C 345.224 244.112,344.617 243.539,344.902 244.070 C 344.977 244.209,344.825 244.063,344.562 243.745 C 343.991 243.051,341.420 241.295,341.187 241.439 C 341.096 241.495,341.022 241.465,341.022 241.371 C 341.022 241.191,339.939 240.680,339.711 240.753 C 339.636 240.777,339.575 240.710,339.575 240.604 C 339.575 240.499,339.493 240.463,339.394 240.525 C 339.294 240.586,339.213 240.562,339.213 240.470 C 339.213 240.278,336.861 239.469,336.718 239.612 C 336.666 239.664,336.524 239.625,336.402 239.524 C 336.197 239.354,335.801 239.278,333.876 239.039 C 332.416 238.857,328.803 238.805,328.564 238.962 M358.752 261.236 L 358.752 282.949 361.556 282.949 L 364.360 282.949 364.374 264.812 L 364.389 246.676 365.035 248.575 C 365.390 249.620,365.745 250.501,365.824 250.532 C 365.903 250.563,365.923 250.706,365.868 250.848 C 365.813 250.991,365.856 251.108,365.963 251.108 C 366.070 251.108,366.111 251.230,366.054 251.379 C 365.996 251.529,366.037 251.651,366.144 251.651 C 366.251 251.651,366.292 251.773,366.235 251.922 C 366.177 252.071,366.225 252.194,366.341 252.194 C 366.457 252.194,366.510 252.262,366.459 252.345 C 366.335 252.545,366.732 253.822,366.917 253.822 C 366.997 253.822,367.016 253.944,366.958 254.093 C 366.901 254.242,366.927 254.365,367.016 254.365 C 367.104 254.365,367.180 254.507,367.184 254.681 C 367.195 255.118,368.922 260.050,369.089 260.120 C 369.164 260.152,369.180 260.294,369.125 260.437 C 369.070 260.580,369.113 260.697,369.220 260.697 C 369.327 260.697,369.367 260.819,369.310 260.968 C 369.253 261.117,369.294 261.239,369.401 261.239 C 369.508 261.239,369.548 261.361,369.491 261.511 C 369.434 261.660,369.482 261.782,369.598 261.782 C 369.714 261.782,369.767 261.850,369.715 261.933 C 369.592 262.133,369.988 263.410,370.174 263.410 C 370.254 263.410,370.272 263.532,370.215 263.682 C 370.157 263.831,370.183 263.953,370.272 263.953 C 370.361 263.953,370.436 264.095,370.440 264.270 C 370.449 264.701,371.997 269.095,372.165 269.166 C 372.239 269.197,372.255 269.340,372.200 269.483 C 372.145 269.625,372.188 269.742,372.295 269.742 C 372.402 269.742,372.443 269.864,372.386 270.014 C 372.328 270.163,372.369 270.285,372.476 270.285 C 372.583 270.285,372.624 270.407,372.567 270.556 C 372.509 270.706,372.550 270.828,372.657 270.828 C 372.764 270.828,372.805 270.950,372.747 271.099 C 372.690 271.248,372.738 271.370,372.854 271.370 C 372.970 271.370,373.023 271.438,372.972 271.521 C 372.848 271.721,373.245 272.999,373.430 272.999 C 373.510 272.999,373.528 273.121,373.471 273.270 C 373.414 273.419,373.440 273.541,373.528 273.541 C 373.617 273.541,373.693 273.684,373.696 273.858 C 373.705 274.289,375.253 278.683,375.422 278.754 C 375.496 278.786,375.511 278.928,375.457 279.071 C 375.402 279.214,375.445 279.331,375.552 279.331 C 375.659 279.331,375.699 279.453,375.642 279.602 C 375.585 279.751,375.626 279.873,375.733 279.873 C 375.840 279.873,375.880 279.995,375.823 280.145 C 375.766 280.294,375.814 280.416,375.930 280.416 C 376.046 280.416,376.099 280.484,376.047 280.568 C 375.919 280.775,376.511 282.587,376.707 282.587 C 376.794 282.587,376.814 282.668,376.753 282.768 C 376.680 282.886,377.601 282.949,379.385 282.949 C 381.749 282.949,382.114 282.911,382.024 282.678 C 381.967 282.528,381.992 282.406,382.081 282.406 C 382.224 282.406,382.522 281.520,382.536 281.049 C 382.539 280.950,382.586 280.828,382.641 280.778 C 382.836 280.600,383.710 278.017,383.623 277.877 C 383.575 277.798,383.624 277.703,383.733 277.667 C 383.843 277.631,383.945 277.380,383.961 277.109 C 383.976 276.838,384.059 276.617,384.144 276.617 C 384.229 276.617,384.252 276.495,384.195 276.346 C 384.138 276.196,384.155 276.074,384.233 276.074 C 384.367 276.074,385.057 274.207,385.069 273.813 C 385.072 273.713,385.144 273.581,385.228 273.520 C 385.312 273.458,385.394 273.194,385.409 272.932 C 385.424 272.670,385.506 272.456,385.591 272.456 C 385.677 272.456,385.700 272.334,385.642 272.185 C 385.585 272.035,385.599 271.913,385.672 271.913 C 385.804 271.913,386.703 269.466,386.703 269.109 C 386.703 269.009,386.772 268.878,386.856 268.816 C 386.941 268.754,387.022 268.490,387.037 268.228 C 387.052 267.967,387.134 267.752,387.220 267.752 C 387.305 267.752,387.328 267.630,387.271 267.481 C 387.213 267.332,387.230 267.209,387.309 267.209 C 387.442 267.209,388.132 265.342,388.145 264.948 C 388.148 264.848,388.219 264.717,388.304 264.655 C 388.388 264.593,388.469 264.329,388.484 264.067 C 388.500 263.805,388.582 263.591,388.667 263.591 C 388.752 263.591,388.775 263.469,388.718 263.320 C 388.661 263.171,388.678 263.048,388.756 263.048 C 388.914 263.048,389.602 261.097,389.568 260.742 C 389.557 260.617,389.613 260.516,389.694 260.516 C 389.826 260.516,390.121 259.608,390.135 259.159 C 390.138 259.059,390.185 258.937,390.239 258.887 C 390.434 258.709,391.309 256.127,391.222 255.986 C 391.173 255.907,391.222 255.813,391.332 255.777 C 391.441 255.740,391.543 255.489,391.559 255.218 C 391.575 254.948,391.657 254.727,391.743 254.726 C 391.828 254.726,391.851 254.604,391.793 254.455 C 391.736 254.306,391.753 254.184,391.832 254.184 C 391.965 254.184,392.655 252.316,392.667 251.922 C 392.670 251.823,392.742 251.691,392.826 251.629 C 392.911 251.568,392.992 251.303,393.007 251.041 C 393.022 250.780,393.105 250.566,393.190 250.565 C 393.275 250.565,393.298 250.443,393.241 250.294 C 393.183 250.145,393.197 250.023,393.271 250.023 C 393.345 250.023,393.607 249.432,393.853 248.711 L 394.301 247.399 394.347 265.174 L 394.393 282.949 397.151 282.949 L 399.910 282.949 399.910 261.239 L 399.910 239.530 396.061 239.530 L 392.212 239.530 392.018 240.027 C 391.911 240.301,391.811 240.708,391.796 240.932 C 391.781 241.155,391.699 241.339,391.613 241.339 C 391.528 241.339,391.505 241.461,391.562 241.610 C 391.620 241.759,391.607 241.882,391.534 241.882 C 391.405 241.882,390.321 244.871,390.321 245.228 C 390.321 245.328,390.252 245.460,390.168 245.521 C 390.083 245.583,390.002 245.848,389.987 246.109 C 389.972 246.371,389.890 246.585,389.804 246.585 C 389.719 246.585,389.696 246.707,389.753 246.857 C 389.811 247.006,389.770 247.128,389.663 247.128 C 389.556 247.128,389.515 247.250,389.572 247.399 C 389.630 247.549,389.614 247.671,389.537 247.671 C 389.380 247.671,388.506 250.169,388.540 250.520 C 388.552 250.645,388.481 250.746,388.382 250.746 C 388.283 250.746,388.247 250.863,388.302 251.006 C 388.356 251.149,388.317 251.294,388.214 251.328 C 388.111 251.362,388.014 251.612,387.998 251.882 C 387.982 252.153,387.899 252.374,387.814 252.374 C 387.729 252.374,387.704 252.491,387.759 252.634 C 387.814 252.777,387.799 252.919,387.726 252.951 C 387.525 253.037,386.428 256.203,386.538 256.381 C 386.591 256.466,386.561 256.536,386.473 256.536 C 386.275 256.536,385.868 257.803,385.998 258.013 C 386.049 258.096,385.996 258.164,385.880 258.164 C 385.764 258.164,385.714 258.281,385.769 258.423 C 385.824 258.566,385.809 258.709,385.736 258.740 C 385.535 258.826,384.438 261.993,384.548 262.170 C 384.601 262.255,384.571 262.325,384.482 262.325 C 384.285 262.325,383.878 263.592,384.008 263.802 C 384.059 263.885,384.006 263.953,383.890 263.953 C 383.774 263.953,383.726 264.075,383.783 264.224 C 383.840 264.374,383.828 264.496,383.755 264.496 C 383.625 264.496,382.542 267.485,382.542 267.843 C 382.542 267.942,382.473 268.074,382.388 268.136 C 382.304 268.197,382.223 268.462,382.208 268.723 C 382.192 268.985,382.110 269.199,382.025 269.199 C 381.940 269.199,381.917 269.322,381.974 269.471 C 382.031 269.620,381.991 269.742,381.884 269.742 C 381.777 269.742,381.736 269.864,381.793 270.014 C 381.850 270.163,381.810 270.285,381.703 270.285 C 381.596 270.285,381.555 270.407,381.612 270.556 C 381.670 270.706,381.629 270.828,381.522 270.828 C 381.415 270.828,381.372 270.945,381.427 271.087 C 381.482 271.230,381.462 271.373,381.384 271.404 C 381.180 271.485,379.909 275.369,380.024 275.556 C 380.077 275.642,380.035 275.712,379.929 275.712 C 379.824 275.712,379.738 275.834,379.738 275.984 C 379.738 276.133,379.665 276.255,379.577 276.255 C 379.488 276.255,379.426 276.153,379.439 276.029 C 379.478 275.652,378.956 273.903,378.805 273.903 C 378.727 273.903,378.710 273.781,378.768 273.632 C 378.825 273.483,378.777 273.360,378.661 273.360 C 378.545 273.360,378.492 273.292,378.544 273.209 C 378.665 273.012,378.084 271.190,377.900 271.190 C 377.822 271.190,377.806 271.067,377.863 270.918 C 377.920 270.769,377.880 270.647,377.773 270.647 C 377.666 270.647,377.625 270.525,377.682 270.375 C 377.739 270.226,377.699 270.104,377.592 270.104 C 377.485 270.104,377.444 269.982,377.501 269.833 C 377.559 269.683,377.518 269.561,377.411 269.561 C 377.304 269.561,377.263 269.439,377.320 269.290 C 377.378 269.141,377.337 269.019,377.230 269.019 C 377.123 269.019,377.082 268.896,377.139 268.747 C 377.197 268.598,377.156 268.476,377.049 268.476 C 376.942 268.476,376.901 268.354,376.959 268.204 C 377.016 268.055,376.975 267.933,376.868 267.933 C 376.761 267.933,376.720 267.811,376.778 267.662 C 376.835 267.512,376.794 267.390,376.687 267.390 C 376.580 267.390,376.539 267.268,376.597 267.119 C 376.654 266.970,376.613 266.848,376.506 266.848 C 376.399 266.848,376.359 266.725,376.416 266.576 C 376.473 266.427,376.432 266.305,376.325 266.305 C 376.218 266.305,376.178 266.183,376.235 266.033 C 376.292 265.884,376.251 265.762,376.144 265.762 C 376.037 265.762,375.997 265.640,376.054 265.491 C 376.111 265.341,376.071 265.219,375.964 265.219 C 375.856 265.219,375.816 265.097,375.873 264.948 C 375.930 264.799,375.890 264.677,375.783 264.677 C 375.676 264.677,375.635 264.555,375.692 264.405 C 375.749 264.256,375.709 264.134,375.602 264.134 C 375.495 264.134,375.454 264.012,375.511 263.863 C 375.569 263.713,375.528 263.591,375.421 263.591 C 375.314 263.591,375.273 263.469,375.330 263.320 C 375.388 263.171,375.340 263.048,375.224 263.048 C 375.107 263.048,375.056 262.979,375.108 262.893 C 375.224 262.707,372.688 255.022,372.484 254.941 C 372.405 254.910,372.385 254.767,372.440 254.624 C 372.495 254.481,372.452 254.365,372.345 254.365 C 372.238 254.365,372.198 254.242,372.255 254.093 C 372.312 253.944,372.271 253.822,372.164 253.822 C 372.057 253.822,372.017 253.700,372.074 253.550 C 372.131 253.401,372.090 253.279,371.983 253.279 C 371.876 253.279,371.836 253.157,371.893 253.008 C 371.950 252.858,371.910 252.736,371.803 252.736 C 371.695 252.736,371.655 252.614,371.712 252.465 C 371.769 252.316,371.729 252.194,371.622 252.194 C 371.515 252.194,371.474 252.071,371.531 251.922 C 371.588 251.773,371.548 251.651,371.441 251.651 C 371.334 251.651,371.293 251.529,371.350 251.379 C 371.407 251.230,371.367 251.108,371.260 251.108 C 371.153 251.108,371.112 250.986,371.169 250.837 C 371.227 250.687,371.186 250.565,371.079 250.565 C 370.972 250.565,370.931 250.443,370.988 250.294 C 371.046 250.145,371.005 250.023,370.898 250.023 C 370.791 250.023,370.750 249.900,370.807 249.751 C 370.865 249.602,370.824 249.480,370.717 249.480 C 370.610 249.480,370.569 249.358,370.627 249.209 C 370.684 249.059,370.643 248.937,370.536 248.937 C 370.429 248.937,370.388 248.815,370.446 248.666 C 370.503 248.517,370.462 248.394,370.355 248.394 C 370.248 248.394,370.207 248.272,370.265 248.123 C 370.322 247.974,370.274 247.852,370.158 247.852 C 370.042 247.852,369.990 247.782,370.043 247.697 C 370.095 247.612,369.544 245.759,368.817 243.581 L 367.495 239.620 363.123 239.572 L 358.752 239.523 358.752 261.236 M332.972 243.963 C 333.270 243.990,333.636 244.058,333.786 244.114 C 334.457 244.369,336.127 244.727,336.218 244.636 C 336.273 244.580,336.318 244.621,336.318 244.726 C 336.318 244.906,337.153 245.232,337.449 245.168 C 337.524 245.151,337.585 245.224,337.585 245.330 C 337.585 245.435,337.666 245.471,337.766 245.409 C 337.865 245.348,337.947 245.370,337.947 245.459 C 337.947 245.547,338.374 245.894,338.896 246.229 C 339.693 246.740,342.348 249.187,342.423 249.480 C 342.543 249.951,342.724 250.181,342.895 250.083 C 343.009 250.018,343.043 250.030,342.971 250.111 C 342.860 250.233,343.796 252.272,344.093 252.555 C 344.146 252.605,344.191 252.727,344.195 252.827 C 344.199 252.926,344.385 253.575,344.608 254.269 C 345.470 256.939,345.945 264.491,345.317 265.512 C 345.224 265.662,344.925 267.266,344.916 267.662 C 344.914 267.761,344.870 267.883,344.820 267.933 C 344.769 267.983,344.576 268.471,344.391 269.019 C 344.205 269.566,343.780 270.522,343.446 271.144 C 343.112 271.766,342.893 272.275,342.960 272.275 C 343.027 272.275,342.923 272.395,342.730 272.541 C 342.537 272.687,342.451 272.809,342.539 272.812 C 342.627 272.815,342.484 272.987,342.221 273.194 C 341.954 273.404,341.796 273.664,341.864 273.782 C 341.930 273.898,341.922 273.938,341.846 273.869 C 341.770 273.800,341.399 274.101,341.022 274.536 C 340.645 274.972,340.297 275.288,340.248 275.239 C 340.199 275.191,339.979 275.379,339.760 275.658 C 339.541 275.936,339.307 276.153,339.242 276.138 C 339.176 276.124,338.797 276.300,338.399 276.531 C 338.001 276.761,337.268 277.139,336.771 277.371 C 336.273 277.603,335.825 277.834,335.776 277.883 C 335.726 277.933,335.442 278.000,335.145 278.033 C 334.847 278.065,334.514 278.166,334.404 278.257 C 334.294 278.348,334.155 278.373,334.093 278.312 C 334.032 278.250,333.836 278.259,333.658 278.330 C 332.884 278.638,330.913 278.729,329.353 278.528 C 328.756 278.451,328.085 278.376,327.861 278.362 C 327.637 278.347,327.454 278.265,327.454 278.179 C 327.454 278.093,327.291 278.065,327.092 278.117 C 326.893 278.169,326.730 278.151,326.730 278.078 C 326.730 277.900,325.446 277.511,325.253 277.630 C 325.170 277.682,325.102 277.647,325.102 277.554 C 325.102 277.382,324.134 276.913,323.909 276.975 C 323.841 276.994,323.732 276.923,323.666 276.817 C 323.601 276.711,323.174 276.358,322.719 276.032 C 321.963 275.492,319.124 272.934,319.614 273.234 C 319.730 273.305,319.478 272.846,319.055 272.215 C 318.402 271.241,317.951 270.298,317.049 268.024 C 316.970 267.825,316.889 267.580,316.870 267.481 C 316.851 267.381,316.816 267.259,316.793 267.209 C 316.769 267.160,316.728 266.915,316.702 266.667 C 316.675 266.418,316.543 265.319,316.409 264.224 C 316.136 261.989,316.136 261.982,316.329 259.611 C 316.407 258.666,316.490 257.648,316.514 257.350 C 316.538 257.051,316.613 256.673,316.681 256.509 C 316.749 256.345,316.786 256.101,316.763 255.966 C 316.741 255.832,316.770 255.599,316.828 255.450 C 317.143 254.638,317.336 253.808,317.244 253.660 C 317.186 253.567,317.201 253.464,317.276 253.430 C 317.399 253.376,318.559 250.888,318.644 250.496 C 318.664 250.408,318.861 250.133,319.083 249.885 C 319.305 249.637,319.467 249.384,319.443 249.321 C 319.418 249.259,319.929 248.692,320.577 248.060 C 321.225 247.429,321.755 246.934,321.755 246.962 C 321.755 246.990,322.101 246.783,322.524 246.503 C 322.947 246.223,323.293 245.910,323.293 245.807 C 323.293 245.705,323.343 245.671,323.405 245.733 C 323.467 245.794,323.989 245.606,324.567 245.315 C 325.734 244.726,327.903 244.064,328.951 243.978 C 329.327 243.947,329.686 243.870,329.749 243.807 C 329.848 243.708,330.438 243.736,332.972 243.963 M252.555 279.783 L 252.555 282.949 255.631 282.949 L 258.706 282.949 258.706 279.783 L 258.706 276.617 255.631 276.617 L 252.555 276.617 252.555 279.783 " stroke="none" fill="#048fb4" fill-rule="evenodd"></path><path id="path4" d="M225.502 155.088 L 224.604 156.038 225.554 155.140 C 226.076 154.646,226.504 154.219,226.504 154.190 C 226.504 154.055,226.336 154.206,225.502 155.088 M212.745 167.300 L 212.121 167.978 212.800 167.355 C 213.431 166.775,213.561 166.621,213.423 166.621 C 213.393 166.621,213.088 166.927,212.745 167.300 M399.907 261.239 C 399.907 273.130,399.928 277.994,399.955 272.049 C 399.981 266.104,399.981 256.375,399.955 250.430 C 399.928 244.484,399.907 249.349,399.907 261.239 M285.889 243.815 C 286.063 243.861,286.348 243.861,286.522 243.815 C 286.696 243.770,286.554 243.733,286.205 243.733 C 285.857 243.733,285.715 243.770,285.889 243.815 M310.319 262.053 C 310.320 262.551,310.355 262.733,310.397 262.458 C 310.438 262.183,310.437 261.776,310.394 261.553 C 310.351 261.331,310.317 261.556,310.319 262.053 " stroke="none" fill="#0493bc" fill-rule="evenodd"></path></g></svg>